<svg viewBox="0 0 56 56" xmlns="http://www.w3.org/2000/svg" fill-rule="evenodd" clip-rule="evenodd" stroke-linejoin="round" stroke-miterlimit="1.41">
    <g fill="#405e71" fill-rule="nonzero">
        <path d="M55.63 38.13a16.27 16.27 0 0 0-7.6-4.2h-.24a.48.48 0 0 0-.25.07c-.82.44-1.95.7-3.1.7a6.85 6.85 0 0 1-3.12-.7.47.47 0 0 0-.22-.06h-.27a17 17 0 0 0-3.53 1.3 12.34 12.34 0 0 1-3.17 5.4H55.3c.27 0 .48-.2.48-.47v-1.7a.48.48 0 0 0-.14-.34M39.1 26.4c0 .5.4.93.88.93.2 2.44 2.12 4.9 4.48 4.9 2.35 0 4.27-2.46 4.46-4.9.5 0 .9-.42.9-.93 0-.38-.23-.7-.53-.85.15-.55.25-1.14.25-1.75 0-3-2.28-5.4-5.1-5.4-2.83 0-5.1 2.4-5.1 5.4 0 .6.08 1.2.26 1.75a.93.93 0 0 0-.5.85m-20.7 8.7a15.6 15.6 0 0 0-3.27-1.16h-.25a.48.48 0 0 0-.22.05c-.83.43-1.96.7-3.1.7a6.9 6.9 0 0 1-3.13-.7.48.48 0 0 0-.22-.07h-.26a16.3 16.3 0 0 0-7.57 4.2.5.5 0 0 0-.14.33v1.7c0 .27.2.48.48.48h20.9a12.52 12.52 0 0 1-3.2-5.55M6.2 26.4c0 .5.4.93.87.93h.02c.16 2.44 2.1 4.9 4.44 4.9s4.28-2.46 4.46-4.9h.02c.5 0 .88-.42.88-.93 0-.38-.22-.7-.52-.85.18-.55.27-1.14.27-1.75 0-3-2.28-5.4-5.1-5.4s-5.1 2.4-5.1 5.4c0 .6.1 1.2.26 1.75a.93.93 0 0 0-.5.85m12.53 4.8c0 .86.67 1.57 1.5 1.57h.02a10 10 0 0 0 2.62 5.96 6.9 6.9 0 0 0 5 2.4c2.04 0 3.9-1.1 5.27-2.7l.48-.6a10.08 10.08 0 0 0 1.87-5.06c.83 0 1.5-.7 1.5-1.58 0-.66-.37-1.2-.9-1.47.3-.93.48-1.94.48-2.98 0-5.1-3.9-9.26-8.73-9.26-4.82 0-8.72 4.14-8.72 9.25 0 1.04.17 2.05.47 2.98-.53.25-.9.8-.9 1.45m15.68 12.55a.78.78 0 0 0-.4-.1h-.4a.8.8 0 0 0-.4.1c-1.4.76-3.35 1.2-5.3 1.2-1.97 0-3.9-.45-5.32-1.2a.8.8 0 0 0-.4-.1h-.3a27.75 27.75 0 0 0-13.1 7.16.8.8 0 0 0-.23.6v2.87c0 .45.36.8.8.8H46.4a.8.8 0 0 0 .8-.8v-2.9a.8.8 0 0 0-.24-.6 27.76 27.76 0 0 0-12.58-7.05m5.6-36.37l-.08.6c-.5 3.4-3.2 5.9-6.44 5.9H32.4l-.2.2a4.12 4.12 0 0 0 3.6 2.22h1.06l2.08 2.17a.7.7 0 0 0 1.2-.48V16.2a4.4 4.4 0 0 0 3.35-4.42 4.4 4.4 0 0 0-3.54-4.43"/>
        <path d="M31.8 8.9h-4.65a.4.4 0 0 1-.4-.42.4.4 0 0 1 .4-.42h4.66c.24 0 .4.2.4.42a.4.4 0 0 1-.4.4m-4.64-3.85h7.77c.2 0 .4.18.4.4 0 .24-.2.43-.4.43h-7.77c-.22 0-.4-.2-.4-.42a.4.4 0 0 1 .4-.4M38.9 7.8c.06-.34.08-.64.08-.93 0-3.3-2.47-5.96-5.52-5.96H28.7c-3.06 0-5.54 2.7-5.54 5.98 0 2.95 1.95 5.4 4.57 5.88v2.5a.8.8 0 0 0 1.4.57l2.85-2.98h1.48c2.74 0 5.03-2.12 5.45-5.04"/>
    </g>
</svg>
