<svg xmlns="http://www.w3.org/2000/svg" viewBox="0 0 512 512">
    <g fill="#ffffff" fill-rule="nonzero">
        <path d="M365.33 37.33V0H146.67v37.33H56V512h400V37.33h-90.67zM162.67 16h186.66v58.67H162.67V16zM392 90.67V448H120V90.67h272zM440 496H72V53.33h74.67v21.34H104V464h304V74.67h-42.67V53.33H440V496z"/>
        <path d="M181.33 37.33h149.33v16H181.33zM149 386.35l197.34-197.33 11.32 11.3-197.33 197.34zM181.33 192A29.37 29.37 0 0 0 152 221.33a29.37 29.37 0 0 0 29.33 29.34 29.37 29.37 0 0 0 29.34-29.34A29.36 29.36 0 0 0 181.33 192zm0 42.67a13.34 13.34 0 1 1 13.33-13.33c0 7.34-5.97 13.33-13.33 13.33zM336 309.33c-16.18 0-29.33 13.16-29.33 29.34S319.82 368 336 368s29.33-13.16 29.33-29.33-13.15-29.34-29.33-29.34zm0 42.67c-7.35 0-13.33-5.98-13.33-13.33s5.98-13.34 13.33-13.34 13.33 5.98 13.33 13.34S343.35 352 336 352zM293.66 152.32l-11.32-11.3-15.67 15.67L251 141l-11.32 11.32L255.35 168l-15.67 15.68 11.3 11.3 15.7-15.67 15.66 15.7 11.32-11.32L277.98 168zM293.66 365.66l-11.32-11.32-15.67 15.68L251 354.34l-11.32 11.32 15.67 15.67L239.68 397l11.3 11.32 15.7-15.67 15.66 15.67 11.32-11.3-15.68-15.7z"/>
    </g>
</svg>
