<svg viewBox="0 0 56 56" xmlns="http://www.w3.org/2000/svg" fill-rule="evenodd" clip-rule="evenodd" stroke-linejoin="round" stroke-miterlimit="1.41">
    <g fill="#f84749" fill-rule="nonzero">
        <path d="M51.24 42.27a1.1 1.1 0 1 1 0-2.2 1.1 1.1 0 0 1 0 2.2M42.94 50a5.52 5.52 0 1 1 0-11.02 5.52 5.52 0 0 1 0 11.03m12.82-10.53c-.07-.86-.68-2.5-2.55-2.5h-3.5c-.14-1.7-.9-3.93-3.03-3.93h-7c-.23.03-2.12.33-2.33 3.94L33.1 37c-.94.03-2.73.66-2.73 2.75v10.18c0 .22-.03 1.13.6 1.83.47.5 1.12.76 1.96.76H53.3c.85-.1 2.5-.73 2.5-2.56v-10.5z"/>
        <path d="M42.94 40.44a4.06 4.06 0 1 0 0 8.13 4.06 4.06 0 0 0 0-8.13m-5.5-26.76l.1.6a.9.9 0 0 0 .42-.16l5.6-3.94c.24-.17.4-.42.45-.7a1.1 1.1 0 0 0-.15-.84 1.14 1.14 0 0 0-1.55-.27l-5.24 3.68a15.47 15.47 0 0 1 .4 1.63m7.3 5.34a1.1 1.1 0 0 0-.7-.46l-6.4-1.1a14.53 14.53 0 0 1-.3 2.2l6.3 1.1h.2a1.1 1.1 0 0 0 .9-1.74m-7.6 3.62a1.1 1.1 0 0 0-.52-.4 18.3 18.3 0 0 1-.93 2.18l3.6 5.1a1.1 1.1 0 1 0 1.8-1.3l-3.9-5.58zM1.6 10.18l5.58 3.94c.07.05.15.08.22.1a13.83 13.83 0 0 1 .52-2.3L2.86 8.38c-.48-.34-1.2-.2-1.54.27a1.1 1.1 0 0 0 .27 1.54m5.87 8.86c-.06-.32-.1-.64-.14-.96l-.06-.6-6.2 1.07a1.1 1.1 0 0 0 .4 2.2l6.1-1.08-.1-.6m1.08 3.8a15 15 0 0 1-.22-.6c-.14.1-.27.2-.37.33l-3.93 5.6a1.12 1.12 0 0 0 .9 1.74c.07 0 .13 0 .2-.02a1 1 0 0 0 .7-.45l3.48-4.9a25.25 25.25 0 0 1-.75-1.67m20.2 1.87c-.1.1-.16.23-.22.35-.7.9-2.58 3.54-3.2 6.18h-5.7c-.66-2.8-2.73-5.58-3.3-6.32l-.15-.16a13.6 13.6 0 0 1-3.35-8.43c0-5.2 4.3-9.43 9.6-9.43s9.6 4.23 9.6 9.43c0 2.8-1.26 6.02-3.3 8.4m-6.3-20.97A12.65 12.65 0 0 0 9.75 16.4a16.6 16.6 0 0 0 4.04 10.43c.74.93 2.9 4.04 2.9 6.06 0 .83.7 1.53 1.55 1.53h8.47a1.56 1.56 0 0 0 1.56-1.56c0-1.8 1.8-4.67 2.9-6.06l.2-.26a16.6 16.6 0 0 0 3.8-10.17c0-6.93-5.7-12.56-12.72-12.56M26 37.06h-7.05c-.7 0-1.25.56-1.25 1.25v4.84c0 .7.55 1.25 1.25 1.25h1.2l.6.7c.24.26.6.4.95.4h1.53c.37 0 .7-.14.95-.42l.62-.7H26c.68 0 1.24-.58 1.24-1.27v-4.8c0-.7-.56-1.25-1.25-1.25"/>
    </g>
</svg>
