<svg viewBox="0 0 56 56" xmlns="http://www.w3.org/2000/svg" fill-rule="evenodd" clip-rule="evenodd" stroke-linejoin="round" stroke-miterlimit="1.41">
    <g fill="#92cdc0" fill-rule="nonzero">
        <path d="M44.27 40.2h-5.8V34.3h7.2l-1.4 5.93zM18.53 34.3h7.34v5.93H19.8l-1.27-5.92zm7.34-7.33v5.25H18.1l-1.13-5.25h8.9zm12.6 0h8.9l-1.22 5.25h-7.68v-5.25zm-2.1 13.26h-8.4V34.3h8.4v5.93zm-8.4-13.25h8.4v5.25h-8.4v-5.25zm22.8-6.9a1.74 1.74 0 0 0-2.1 1.3l-.48 2.12H16.22l-.92-4.34a1.74 1.74 0 0 0-1.7-1.37H5.64a1.74 1.74 0 0 0 0 3.48h6.57l4.5 21.07c.16.8.87 1.4 1.7 1.4l27.25-.02c.8 0 1.5-.55 1.7-1.34l4.72-20.2a1.74 1.74 0 0 0-1.3-2.1M23.66 47.9a3.88 3.88 0 1 0 0 7.76 3.88 3.88 0 0 0 0-7.76M40.35 47.9a3.88 3.88 0 1 0 0 7.76 3.88 3.88 0 0 0 0-7.76"/>
        <g>
            <path d="M46.68 23.53L24 19.6l2.93-16.88 22.67 3.9-2.92 16.9zm4.38-18.88L26.22.35c-.6-.1-1.17.3-1.27.9l-3.3 19.08c-.1.6.3 1.17.9 1.27l24.84 4.3c.6.1 1.16-.3 1.27-.9l3.3-19.08c.1-.6-.3-1.17-.9-1.27"/>
            <path d="M39.9 17.18l4.4-4.14c-.3-.18-.53-.44-.68-.74l-4.42 4.15c.3.17.54.43.7.73M37.16 16.73c.25-.24.55-.4.9-.47l-2.86-5.4c-.24.23-.55.4-.88.46l2.84 5.4zM30.4 12.43l2.48-1.5a1.7 1.7 0 0 1-.53-.86l-2.44 1.5c.25.22.43.53.5.86M33.33 10.64a1.2 1.2 0 0 0 1.62-.27c.12-.14.2-.32.24-.52a1.2 1.2 0 0 0-2.38-.4c-.02.1-.02.22 0 .33.03.35.22.67.5.86M37.8 16.88a1.1 1.1 0 0 0-.2.13v.02c-.07.05-.13.1-.18.17-.12.15-.2.33-.24.52a1.2 1.2 0 0 0 2.37.4 1.18 1.18 0 0 0-.15-.8 1.25 1.25 0 0 0-.33-.36l-.03-.02a1.2 1.2 0 0 0-.47-.2 1.2 1.2 0 0 0-.76.13M44.68 12.67l.28.1a1.2 1.2 0 1 0-.98-1.4c-.04.2-.02.38.04.55.1.33.34.6.66.75M28.54 13.98a1.2 1.2 0 1 0 .4-2.37 1.2 1.2 0 0 0-.4 2.38"/>
        </g>
    </g>
</svg>
