<svg viewBox="0 0 56 56" xmlns="http://www.w3.org/2000/svg" fill-rule="evenodd" clip-rule="evenodd" stroke-linejoin="round" stroke-miterlimit="1.41">
    <clipPath id="a">
        <path d="M94.6 70.68H-16.3v-89.7H94.6v89.7zm-46.68-32.2l7.25-3.3-.02-.02.47-.22-4.7-10.43a.52.52 0 0 0-.7-.25l-14.82 6.7a.52.52 0 0 0-.26.68l.63 1.4s.03.02.04.05l.94 2.06 11.18 3.33-7.58 3.42v-.05l-.47.2-3.13-6.9-.87-.27a.5.5 0 0 0-.43 0l-3.8 1.7c-.1.06-.2.14-.24.24-.05.1-1.22 2.32.02 5.06l1.6 3.53a.5.5 0 0 0 0 .38l1.1 2.42c.13.27.43.38.7.26l13.7-6.18-.04-.06c-.06-.14-.25-2.27.03-2.86.1-.22.23-.42.37-.6l-.95-.3zM19.1 4.42l-22.77 6.8a.9.9 0 0 0-.6 1.1l6.6 22.06a.9.9 0 0 0 1.1.6l22.76-6.8a.9.9 0 0 0 .6-1.1L20.2 5a.9.9 0 0 0-1.1-.6z"/>
    </clipPath>
    <g clip-path="url(#a)" fill="#fbbe66" fill-rule="nonzero">
        <path d="M20.26 40.34a4.7 4.7 0 1 1 0-9.4 4.7 4.7 0 0 1 0 9.4M34.12 34l-2.75-.72c-.08-.4-.18-.77-.3-1.14l2-2c.66-.7 1.07-1.46.6-2.25-.44-.8-1.37-.83-2.24-.6l-2.74.74c-.28-.3-.55-.56-.84-.82l.75-2.76c.23-.9.2-1.8-.6-2.24-.78-.45-1.6-.02-2.24.6l-2 2.02a10.9 10.9 0 0 0-1.14-.3l-.72-2.76c-.27-.9-.74-1.64-1.64-1.64-.9 0-1.4.8-1.65 1.64l-.7 2.75c-.4.08-.78.2-1.15.3l-2-2c-.7-.66-1.46-1.06-2.25-.6-.78.44-.82 1.37-.6 2.23l.75 2.76c-.3.26-.56.53-.82.82l-2.75-.75c-.92-.23-1.8-.2-2.25.6-.45.78-.02 1.6.6 2.24l2.02 2c-.12.37-.23.75-.3 1.14L6.4 34c-.9.27-1.65.74-1.65 1.65 0 .9.8 1.4 1.65 1.64l2.74.72c.08.38.2.76.3 1.13l-2 2c-.66.7-1.06 1.46-.6 2.25.44.8 1.37.82 2.24.6l2.75-.75c.26.3.53.57.82.83l-.75 2.75c-.2.92-.18 1.8.6 2.24.8.46 1.6.02 2.25-.6l2-2.02c.37.12.75.23 1.14.3l.7 2.75c.28.9.75 1.65 1.66 1.65.9 0 1.4-.79 1.64-1.65l.72-2.74c.4-.08.77-.18 1.14-.3l2 2c.7.66 1.46 1.07 2.25.6.8-.44.83-1.37.6-2.23l-.74-2.76c.3-.25.56-.53.83-.82l2.74.75c.92.22 1.8.2 2.24-.6.46-.8.02-1.6-.6-2.25l-2.02-2c.13-.37.23-.75.3-1.13l2.76-.73c.9-.28 1.64-.74 1.64-1.65 0-.9-.78-1.4-1.64-1.65"/>
        <path d="M39.2 19.97a3.23 3.23 0 1 1 0-6.47 3.23 3.23 0 0 1 0 6.47m10.16-4.88l-2.7-.72a7.7 7.7 0 0 0-.54-1.3l1.4-2.42c.46-.84.65-1.7 0-2.33-.63-.64-1.54-.44-2.32 0l-2.46 1.44c-.4-.2-.8-.38-1.24-.5l-.73-2.78c-.27-.9-.74-1.65-1.65-1.65-.9 0-1.4.78-1.64 1.64l-.74 2.8c-.4.15-.8.3-1.16.5l-2.53-1.47c-.84-.45-1.7-.64-2.33 0-.64.64-.43 1.55 0 2.33l1.5 2.56c-.18.36-.34.73-.46 1.1l-2.87.77c-.92.26-1.66.72-1.66 1.64 0 .9.78 1.4 1.65 1.64l2.86.76c.12.38.28.75.46 1.1l-1.5 2.57c-.45.84-.64 1.7 0 2.34.64.64 1.55.43 2.33 0l2.53-1.48c.37.2.75.36 1.16.5l.74 2.8c.27.92.74 1.66 1.65 1.66.9 0 1.4-.8 1.64-1.65l.73-2.76c.43-.12.84-.3 1.24-.5l2.46 1.44c.83.45 1.7.64 2.33 0 .64-.65.43-1.55 0-2.33l-1.4-2.4c.2-.43.4-.86.53-1.3l2.7-.72c.9-.27 1.65-.74 1.65-1.65 0-.9-.77-1.4-1.64-1.64"/>
    </g>
    <path d="M40.74 44.78a2.6 2.6 0 0 0-3.54-.1 2.6 2.6 0 0 0-.62 3s0 .03.02.05a2.58 2.58 0 0 0 4.7-2.12s0-.03-.02-.05a2.54 2.54 0 0 0-.54-.77zm12.45-5.62a2.6 2.6 0 0 0-3.55-.1 2.6 2.6 0 0 0-.62 3s0 .03.02.04a2.58 2.58 0 0 0 4.7-2.12s0-.03-.02-.05a2.55 2.55 0 0 0-.54-.77zm-13.27 7.06c.2.53-.04 1.14-.56 1.38-.52.23-1.14 0-1.4-.5l-.03-.04a1.08 1.08 0 0 1 .54-1.43c.2-.1.4-.1.58-.1a1.08 1.08 0 0 1 .85.64l.03.05zm12.45-5.62a1.08 1.08 0 0 1-1.96.9c0-.03-.02-.05-.03-.07a1.1 1.1 0 0 1 .53-1.43c.2-.08.4-.1.58-.08a1.1 1.1 0 0 1 .86.62c0 .02 0 .04.02.06zM36.1 35.38a.48.48 0 0 1 .4 0l3.33 7.35c.04.08.1.13.17.16l.04-.02v.03c.08.03.15.03.22 0l8.54-3.86a3.3 3.3 0 0 0-.37 3.28c0 .02.02.04.03.05l-6.56 2.97-.03-.06a3.05 3.05 0 0 0-.5-.78c-.4-.48-.95-.82-1.55-1l-.03.03s0-.02.02-.02a3.23 3.23 0 0 0-3.84 4.44L36 48l-.48.22a.5.5 0 0 1-.65-.25l-1.04-2.3a.5.5 0 0 1-.02-.34L32.3 42a5.65 5.65 0 0 1 0-4.78.5.5 0 0 1 .22-.22l3.6-1.62zm18.4.95v.02l1.03 2.3a.5.5 0 0 1-.24.64l-.95.42-.03-.06a3.2 3.2 0 0 0-.5-.78 3.23 3.23 0 0 0-2.2-1.1c-.1-.02-.17-.02-.25-.02h-.04l3.16-1.43zm-4.42-11a.5.5 0 0 1 .65.25l4.45 9.86-.45.2.02.04-14 6.32-.02-.03-.44.2-3.84-8.5-.04-.05-.6-1.3a.5.5 0 0 1 .25-.66l14-6.32zM37.25 39.1l-1.18-2.62-2.98 1.34a4.7 4.7 0 0 0-.12 3.2l4.27-1.93z" fill="#fbbe66"/>
    <g fill="#fbbe66" fill-rule="nonzero">
        <path d="M22.48 22.24L5.62 27.27l-3.6-12.1 16.85-5.03 3.6 12.1zm-3.56 4.2l-7.9 2.36a.28.28 0 0 1-.15-.54l7.88-2.36a.28.28 0 1 1 .17.55m.22-17.88L.92 14a.7.7 0 0 0-.47.9L5.7 32.53c.12.38.52.6.9.48l18.2-5.43c.4-.13.6-.52.5-.9L20 9.05a.7.7 0 0 0-.88-.48"/>
        <path d="M8.03 19.3a1.67 1.67 0 1 0-.96-3.2 1.67 1.67 0 0 0 .96 3.2M17.4 16.24l-.75 2.16-3.47-2.74-1.6 5.55c0 .02-5.4.3-5.17 4.03l14.33-4.27-3.33-4.72z"/>
    </g>
</svg>
