<svg xmlns="http://www.w3.org/2000/svg" viewBox="0 0 59.018 59.018">
    <g fill="#ffffff" fill-rule="nonzero">
        <path d="M58.74 54.8l-5.97-6.23a10.74 10.74 0 0 0 2.82-7.26 10.8 10.8 0 0 0-21.6 0 10.8 10.8 0 0 0 10.8 10.8c2.44 0 4.68-.8 6.5-2.2l6 6.3a1 1 0 0 0 1.44-1.4zM36 41.3a8.8 8.8 0 0 1 17.6 0 8.8 8.8 0 0 1-17.6 0zM10.43 16.1a5.57 5.57 0 1 0 11.15-.03 5.57 5.57 0 0 0-11.15.02zm9.14 0a3.57 3.57 0 1 1-7.15-.02 3.57 3.57 0 0 1 7.15 0z"/>
        <path d="M30.88 29l9.18-10.07 11.26 10.33a1 1 0 0 0 1.35-1.48l-12-11a1 1 0 0 0-1.4.06l-9.8 10.73-4.75-4.74a1 1 0 0 0-1.36-.05l-17.02 15a1 1 0 0 0 1.32 1.5l16.3-14.37 7.33 7.32a1 1 0 0 0 1.4-1.4l-1.82-1.83z"/>
        <path d="M30 46.52H2v-42h54v28a1 1 0 0 0 2 0v-29a1 1 0 0 0-1-1H1a1 1 0 0 0-1 1v44a1 1 0 0 0 1 1h29a1 1 0 0 0 0-2z"/>
    </g>
</svg>
