<svg viewBox="0 0 480 480" xmlns="http://www.w3.org/2000/svg" fill-rule="evenodd" clip-rule="evenodd" stroke-linejoin="round" stroke-miterlimit="1.41">
    <g fill-rule="nonzero">
        <path d="M252.44 139.83c49.32 6.07 87.6 47.67 88.48 98.42l65.48 35.5 64.6-35.42c-.88-122.4-96.93-222.17-217.84-228.96l35.22 64.2-35.94 66.26z" fill="#405e71"/>
        <path d="M139.83 227.56c6.07-49.32 47.67-87.6 98.42-88.48l35.5-65.48L238.34 9C115.93 9.9 16.16 105.94 9.37 226.85l64.2-35.22 66.26 35.94z" fill="#f84749"/>
        <path d="M470.63 253.16l-64.2 35.22-66.26-35.94c-6.07 49.32-47.67 87.6-98.42 88.48l-35.5 65.48 35.42 64.6c122.4-.88 222.17-96.93 228.96-217.84" fill="#fbbe66"/>
        <path d="M227.56 340.17c-49.32-6.07-87.6-47.67-88.48-98.42l-65.48-35.5L9 241.66c.88 122.4 96.93 222.17 217.84 228.96l-35.22-64.2 35.94-66.26z" fill="#92cdc0"/>
    </g>
    <g fill="#fff" fill-rule="nonzero">
        <path d="M180.74 129.7a1.64 1.64 0 1 1 0-3.28 1.64 1.64 0 0 1 0 3.28m-12.4 11.56a8.24 8.24 0 1 1 .02-16.48 8.24 8.24 0 0 1 0 16.48m19.13-15.77c-.1-1.3-1.02-3.74-3.82-3.74h-5.25c-.23-2.55-1.37-5.88-4.55-5.88H163.42c-.35.04-3.18.5-3.5 5.88l-6.3.05c-1.4.07-4.08 1-4.08 4.13v15.2c-.02.34-.05 1.7.9 2.74a3.75 3.75 0 0 0 2.92 1.13h30.41c1.3-.12 3.73-1.08 3.73-3.82V125.5z"/>
        <path d="M168.35 126.97a6.07 6.07 0 0 0 0 12.12 6.07 6.07 0 0 0 0-12.13"/>
        <g>
            <path d="M160.13 87l.15.9c.22-.05.44-.12.62-.25l8.36-5.9a1.65 1.65 0 0 0 .4-2.3 1.7 1.7 0 0 0-2.3-.4l-7.82 5.5a20.76 20.76 0 0 1 .6 2.43M171.07 94.96c-.26-.36-.64-.6-1.07-.67l-9.55-1.68a24.5 24.5 0 0 1-.44 3.3l9.43 1.63.3.02a1.65 1.65 0 0 0 1.34-2.6M159.72 100.37c-.2-.28-.48-.48-.8-.6a29.88 29.88 0 0 1-1.38 3.26l5.35 7.6a1.65 1.65 0 1 0 2.7-1.9l-5.88-8.36zM106.57 81.76l8.36 5.88c.1.08.2.12.32.16a21.96 21.96 0 0 1 .78-3.42l-7.56-5.32a1.7 1.7 0 0 0-2.3.4 1.65 1.65 0 0 0 .4 2.3M115.36 95.04a23.6 23.6 0 0 1-.2-1.43l-.08-.92-9.25 1.6a1.65 1.65 0 0 0 .57 3.27l9.13-1.6c-.06-.3-.1-.6-.17-.9M117 100.8c-.13-.3-.24-.6-.35-.9-.2.1-.4.27-.54.47l-5.87 8.36a1.66 1.66 0 1 0 2.7 1.9l5.18-7.36a32.48 32.48 0 0 1-1.1-2.48M147.16 103.6a2.2 2.2 0 0 0-.33.52c-1.03 1.35-3.85 5.3-4.76 9.23h-8.55c-.96-4.17-4.06-8.33-4.93-9.44-.07-.1-.15-.18-.23-.27-3.06-3.56-4.96-8.38-4.96-12.6 0-7.75 6.45-14.07 14.36-14.07 7.9 0 14.35 6.32 14.35 14.08 0 4.2-1.9 9.02-4.94 12.56m-9.4-31.3c-10.48 0-19 8.4-19 18.74 0 5.27 2.2 11.02 5.9 15.42l.12.17c1.13 1.4 4.35 6.04 4.35 9.06 0 1.28 1.05 2.32 2.33 2.32h12.66c.3 0 .6-.06.9-.2a2.33 2.33 0 0 0 1.43-2.13c0-2.7 2.67-7 4.35-9.07.1-.12.18-.26.25-.4 3.6-4.37 5.72-10 5.72-15.2 0-10.33-8.53-18.74-19-18.74M143.02 121.9H132.5c-1.03 0-1.87.84-1.87 1.87V131c0 1.02.84 1.86 1.87 1.86h1.78l.92 1.07c.36.4.87.64 1.4.64h2.3c.55 0 1.06-.23 1.42-.64l.92-1.07h1.78c1.03 0 1.87-.84 1.87-1.87v-7.23c0-1.03-.85-1.86-1.88-1.86"/>
        </g>
    </g>
    <clipPath id="a">
        <path d="M439.4 432.7H271.8V297.15h167.6V432.7zM368.83 384l10.96-4.95-.03-.06.72-.3-7.13-15.78a.78.78 0 0 0-1.04-.4l-22.4 10.13a.8.8 0 0 0-.4 1.04l.95 2.08.07.1 1.4 3.1 16.9 5.04-11.45 5.17-.03-.07-.7.3-4.7-10.44-1.34-.4a.77.77 0 0 0-.64 0l-5.76 2.6c-.15.06-.28.18-.36.33-.08.14-1.84 3.5.03 7.64l2.42 5.34a.8.8 0 0 0 .03.56l1.65 3.67c.18.4.65.57 1.04.4l20.7-9.35-.05-.1c-.1-.2-.4-3.43.03-4.32.16-.32.34-.63.55-.9l-1.44-.44zm-43.54-51.44l-34.42 10.26c-.7.2-1.1.96-.9 1.67l9.95 33.36c.2.7.95 1.1 1.67.9L336 368.5c.72-.22 1.12-.96.9-1.67l-9.93-33.35c-.22-.7-.96-1.1-1.67-.9z"/>
    </clipPath>
    <g clip-path="url(#a)" fill="#fff" fill-rule="nonzero">
        <path d="M327.04 386.85a7.1 7.1 0 1 1 0-14.2 7.1 7.1 0 0 1 0 14.2m20.94-9.58l-4.14-1.1a16.5 16.5 0 0 0-.47-1.7l3.05-3.04c.98-1.04 1.6-2.2.9-3.4-.67-1.18-2.07-1.23-3.4-.9l-4.14 1.13c-.4-.43-.8-.85-1.25-1.24l1.14-4.16c.32-1.4.27-2.7-.92-3.4-1.18-.68-2.42-.03-3.4.9l-3 3.06a16.6 16.6 0 0 0-1.73-.46l-1.1-4.15c-.4-1.36-1.1-2.48-2.48-2.48-1.37 0-2.12 1.2-2.48 2.5l-1.1 4.14c-.58.12-1.15.28-1.72.46l-3.02-3.05c-1.04-.98-2.2-1.6-3.4-.9-1.18.68-1.24 2.08-.9 3.4l1.13 4.14c-.44.4-.85.82-1.25 1.26l-4.15-1.13c-1.4-.33-2.7-.28-3.4.9-.7 1.2-.03 2.44.9 3.4l3.06 3.03a17 17 0 0 0-.46 1.7l-4.14 1.1c-1.37.42-2.5 1.12-2.5 2.5 0 1.37 1.2 2.1 2.5 2.48l4.14 1.1c.13.58.28 1.15.47 1.7l-3.04 3.03c-.98 1.04-1.6 2.2-.9 3.4.68 1.2 2.08 1.24 3.4.9l4.14-1.12c.4.43.8.85 1.25 1.24l-1.14 4.15c-.3 1.4-.26 2.7.92 3.4 1.2.68 2.43.03 3.4-.92l3.02-3.04c.56.17 1.14.33 1.72.45l1.1 4.15c.4 1.37 1.1 2.48 2.48 2.48 1.37 0 2.12-1.18 2.5-2.48l1.08-4.15c.6-.12 1.16-.28 1.72-.46l3.02 3.03c1.04 1 2.2 1.6 3.4.92 1.2-.7 1.24-2.1.9-3.4l-1.13-4.16c.44-.4.86-.82 1.25-1.25l4.15 1.13c1.4.33 2.72.28 3.4-.9.7-1.2.03-2.44-.9-3.4l-3.06-3.03c.2-.56.34-1.13.47-1.72l4.15-1.1c1.35-.4 2.47-1.1 2.47-2.47 0-1.38-1.18-2.12-2.48-2.5"/>
        <path d="M355.67 356.06a4.9 4.9 0 1 1 0-9.77 4.9 4.9 0 0 1 0 9.76m15.36-7.37l-4.1-1.1c-.2-.67-.48-1.32-.8-1.95l2.13-3.66c.67-1.27.97-2.55 0-3.52-.97-.98-2.34-.67-3.52 0l-3.72 2.17c-.6-.3-1.23-.58-1.88-.77l-1.1-4.18c-.4-1.37-1.1-2.48-2.48-2.48s-2.12 1.18-2.5 2.48l-1.1 4.26c-.62.2-1.2.45-1.76.75l-3.83-2.22c-1.26-.68-2.54-.98-3.5 0-.98.97-.67 2.33 0 3.5l2.25 3.9c-.27.53-.5 1.08-.7 1.67l-4.34 1.14c-1.36.4-2.48 1.1-2.48 2.48 0 1.37 1.18 2.12 2.48 2.48l4.34 1.14c.2.58.43 1.14.7 1.68l-2.26 3.88c-.68 1.26-.97 2.54 0 3.5.97.98 2.33.67 3.5 0l3.84-2.2c.55.28 1.14.52 1.75.73l1.12 4.25c.4 1.37 1.1 2.5 2.5 2.5 1.36 0 2.1-1.2 2.47-2.5l1.1-4.17c.66-.2 1.28-.47 1.88-.77l3.72 2.18c1.26.67 2.55.97 3.52 0 .97-.98.65-2.35 0-3.52l-2.14-3.66c.33-.63.6-1.28.82-1.96l4.1-1.08c1.36-.4 2.48-1.1 2.48-2.48s-1.2-2.12-2.5-2.5"/>
    </g>
    <path d="M358 393.56a3.92 3.92 0 0 0-5.35-.13 3.9 3.9 0 0 0-.95 4.5c0 .03.03.05.04.08a3.9 3.9 0 0 0 7.1-3.2l-.03-.08a3.8 3.8 0 0 0-.8-1.16zm18.8-8.5a3.92 3.92 0 0 0-5.33-.13 3.9 3.9 0 0 0-.95 4.5c0 .03.03.06.04.08a3.9 3.9 0 0 0 7.1-3.2l-.04-.08a3.75 3.75 0 0 0-.8-1.16zm-20.03 10.68a1.63 1.63 0 0 1-2.96 1.34c0-.03-.02-.05-.04-.08a1.62 1.62 0 0 1 .15-1.6 1.62 1.62 0 0 1 2.84.25c.02.03.02.06.03.1zm18.82-8.5a1.63 1.63 0 0 1-2.97 1.34l-.05-.08a1.64 1.64 0 0 1 .82-2.16 1.64 1.64 0 0 1 2.16.82c0 .04.02.07.03.1zm-24.6-7.9c.2-.08.42-.07.6 0l5.02 11.12c.05.12.15.2.26.25l.05-.02c0 .02 0 .03.02.05.1.03.22.03.32-.02l12.9-5.82a4.98 4.98 0 0 0-.55 4.96c0 .03.02.05.04.08l-9.92 4.48-.03-.1a4.84 4.84 0 0 0-.75-1.17 4.9 4.9 0 0 0-2.34-1.5l-.04.03.04-.03a4.9 4.9 0 0 0-6.2 5.35 4.77 4.77 0 0 0 .4 1.36l.04.08-.74.33c-.37.17-.8 0-.98-.37l-1.56-3.47a.74.74 0 0 1-.03-.5l-2.28-5.06a8.53 8.53 0 0 1-.03-7.2c.08-.16.2-.27.35-.34l5.43-2.45zm27.77 1.45l1.58 3.48c.17.37 0 .8-.37.98l-1.43.64c0-.02 0-.05-.03-.08a4.9 4.9 0 0 0-3.1-2.68 4.95 4.95 0 0 0-1.37-.2H374l4.77-2.15zm-6.66-16.62c.38-.17.82 0 1 .37l6.7 14.9-.66.3.02.05-21.16 9.56-.02-.05-.66.3-5.8-12.82c0-.03-.03-.06-.05-.08l-.9-2c-.17-.36 0-.8.37-.97l21.17-9.55zm-19.38 20.78l-1.78-3.95-4.5 2.04c-.27.62-.9 2.5-.17 4.83l6.45-2.9z" fill="#fff"/>
    <g fill="#fff" fill-rule="nonzero">
        <path d="M330.4 359.5l-25.48 7.6-5.46-18.3 25.48-7.6 5.46 18.3zm-5.38 6.35l-11.92 3.56a.43.43 0 0 1-.25-.8l11.92-3.57c.23-.07.47.06.54.3a.43.43 0 0 1-.28.52m.34-27l-27.53 8.2c-.57.17-.9.77-.72 1.34l7.96 26.67c.17.56.77.9 1.34.72l27.53-8.22c.56-.17.9-.77.72-1.34l-7.96-26.68c-.18-.56-.78-.9-1.34-.72M308.56 355.04"/>
        <path d="M322.72 350.44l-1.13 3.25-5.25-4.14-2.44 8.4s-8.1.4-7.78 6.05l21.63-6.45-5.03-7.1z"/>
    </g>
    <g fill="#fff" fill-rule="nonzero">
        <path d="M415.68 159.34a22.7 22.7 0 0 0-10.6-5.85h-.33c-.1 0-.22.02-.32.07a9.5 9.5 0 0 1-4.33.97c-1.6 0-3.2-.35-4.34-.97a.67.67 0 0 0-.3-.08H395.03a22.2 22.2 0 0 0-4.9 1.82c-.8 2.8-2.35 5.48-4.44 7.53h29.52c.37 0 .67-.3.67-.67v-2.37a.67.67 0 0 0-.22-.47M392.64 142.98c0 .7.55 1.3 1.22 1.3h.02c.25 3.4 2.94 6.82 6.22 6.82s5.96-3.4 6.22-6.82h.02c.67 0 1.22-.6 1.22-1.3 0-.52-.3-.98-.72-1.18a8 8 0 0 0 .38-2.44c0-4.17-3.2-7.55-7.12-7.55-3.94 0-7.12 3.4-7.12 7.56 0 .86.13 1.68.38 2.44-.43.2-.72.66-.72 1.18M363.76 155.1a21.86 21.86 0 0 0-4.54-1.6h-.35c-.1 0-.2.02-.3.07a9.52 9.52 0 0 1-4.35.97c-1.6 0-3.18-.35-4.33-.97a.66.66 0 0 0-.33-.08h-.4a22.75 22.75 0 0 0-10.54 5.84c-.12.12-.2.3-.2.47v2.4c0 .35.3.65.67.65h29.16a17.43 17.43 0 0 1-4.5-7.75M346.76 142.98c0 .7.55 1.3 1.22 1.3h.03c.26 3.4 2.94 6.82 6.22 6.82s5.97-3.4 6.22-6.82h.02c.68 0 1.22-.6 1.22-1.3 0-.52-.3-.98-.72-1.18.25-.76.38-1.58.38-2.44 0-4.17-3.18-7.55-7.12-7.55-3.93 0-7.12 3.4-7.12 7.56 0 .86.14 1.68.4 2.44-.44.2-.73.66-.73 1.18M364.24 149.66c0 1.22.93 2.2 2.08 2.2h.04a13.94 13.94 0 0 0 3.65 8.3c1.88 2.02 4.3 3.36 6.98 3.36 2.85 0 5.43-1.52 7.34-3.76a14.06 14.06 0 0 0 3.28-7.9h.03c1.15 0 2.08-.98 2.08-2.2 0-.9-.5-1.67-1.24-2.02.43-1.3.66-2.7.66-4.16 0-7.12-5.45-12.9-12.16-12.9-6.72 0-12.16 5.78-12.16 12.9 0 1.46.24 2.86.65 4.16a2.2 2.2 0 0 0-1.23 2.02M386.05 167.14a1.1 1.1 0 0 0-.54-.13h-.58c-.2 0-.37.05-.54.14a16.2 16.2 0 0 1-7.4 1.66c-2.74 0-5.44-.6-7.4-1.66-.17-.1-.36-.13-.54-.13h-.44c-.08 0-.17.02-.26.04a38.66 38.66 0 0 0-17.98 9.95c-.22.2-.34.5-.34.8v4.05c0 .63.5 1.13 1.13 1.13h51.66c.63 0 1.14-.5 1.14-1.13v-4.05c0-.3-.12-.6-.34-.8a38.7 38.7 0 0 0-17.55-9.86M393.84 116.42c-.02.27-.05.54-.1.83-.68 4.76-4.45 8.22-8.97 8.22h-1.47l-.27.28c1 1.9 2.9 3.1 5.02 3.1h1.46l2.9 3.04a.97.97 0 0 0 1.67-.68v-2.47c2.7-.56 4.7-3.1 4.7-6.15 0-3.12-2.15-5.7-4.93-6.18"/>
        <path d="M382.47 118.58h-6.5a.57.57 0 0 1-.55-.58c0-.32.25-.58.55-.58h6.5c.3 0 .55.26.55.58 0 .32-.24.58-.55.58m-6.5-5.4h10.83c.3 0 .55.27.55.6 0 .3-.25.57-.55.57h-10.83a.57.57 0 0 1-.55-.58c0-.32.25-.58.55-.58m16.4 3.85c.07-.47.1-.9.1-1.3 0-4.57-3.45-8.3-7.7-8.3h-6.65c-4.25 0-7.7 3.73-7.7 8.3 0 4.13 2.7 7.53 6.36 8.2v3.5a1.13 1.13 0 0 0 1.94.8l3.98-4.17h2.07c3.82 0 7.02-2.96 7.6-7.03"/>
    </g>
    <g fill="#fff" fill-rule="nonzero">
        <path d="M120.64 346.6h-7.95v-8.12h9.83l-1.9 8.1zm-35.22-8.12h10.04v8.1h-8.3l-1.74-8.1zm10.04-10.03v7.18H84.8l-1.52-7.18h12.18zm17.23 0h12.18l-1.68 7.18h-10.5v-7.18zm-2.86 18.14H98.32v-8.12h11.52v8.1zm-11.52-18.15h11.52v7.18H98.32v-7.18zm31.2-9.44c-1.27-.3-2.55.5-2.85 1.78l-.68 2.9H82.26L81 317.77a2.38 2.38 0 0 0-2.32-1.88H67.76a2.38 2.38 0 0 0 0 4.75h9l6.13 28.84a2.38 2.38 0 0 0 2.32 1.88h37.3c1.1 0 2.07-.76 2.32-1.84l6.46-27.63c.3-1.28-.5-2.56-1.77-2.86M92.44 357.1a5.3 5.3 0 1 0 0 10.64 5.3 5.3 0 0 0 0-10.63M115.28 357.1a5.3 5.3 0 1 0 0 10.64 5.3 5.3 0 0 0 0-10.63"/>
        <g>
            <path d="M123.93 323.77l-31-5.35 3.98-23.13 31.03 5.35-4 23.13zm6-25.83l-34-5.88a1.5 1.5 0 0 0-1.73 1.23l-4.5 26.1c-.15.8.4 1.6 1.22 1.73l34 5.88c.8.15 1.6-.4 1.73-1.22l4.5-26.1a1.5 1.5 0 0 0-1.22-1.74"/>
            <path d="M114.64 315.08l6.02-5.67c-.4-.23-.72-.58-.9-1l-6.06 5.7c.4.22.73.57.94.98M110.9 314.46c.34-.32.76-.55 1.22-.64l-3.9-7.4c-.32.33-.75.55-1.2.64l3.9 7.4zM101.66 308.58l3.38-2.06c-.34-.3-.6-.72-.7-1.17l-3.36 2.04c.34.3.57.73.68 1.18M105.67 306.14a1.64 1.64 0 0 0 1 .28c.5-.03.92-.27 1.2-.65a1.63 1.63 0 0 0-1-2.6 1.64 1.64 0 0 0-1.2 2.97M111.77 314.67c-.1.05-.2.12-.27.2a1.7 1.7 0 0 0-.25.24 1.64 1.64 0 1 0 2.92 1.27c.05-.26.02-.53-.07-.78a1.6 1.6 0 0 0-.34-.58c0-.02 0-.03-.02-.04a1.57 1.57 0 0 0-.23-.2s0-.02-.02-.03a1.65 1.65 0 0 0-1.36-.22h-.03l-.3.13h-.03M121.2 308.92c.1.05.24.1.37.1a1.65 1.65 0 1 0-1.34-1.88c-.04.26-.02.5.06.75.12.45.45.82.9 1.02M99.1 310.7a1.64 1.64 0 1 0-1.34-1.9c-.15.9.45 1.75 1.34 1.9"/>
        </g>
    </g>
    <g>
        <path d="M183.74 281.95a66.83 66.83 0 0 1-10.9-36.7A67.2 67.2 0 0 1 240 178.08a67.2 67.2 0 0 1 67.17 67.17c0 13.54-4 26.15-10.9 36.7A149.3 149.3 0 0 0 240 271.02a149.3 149.3 0 0 0-56.26 10.93zm114.1-43.63c3.1-15.9-1-20.25-1.18-20.43a.75.75 0 0 0-.12-.1l-10.16-6.68-1-3.9a.73.73 0 0 0-.46-.53l-11.68-3.97a.73.73 0 0 0-.7.12l-3.16 2.5-12.13-.9h-.15c-.24.05-6.16 1-13.36 15.5-.07.14-.1.3-.07.45l.12.7-.65 1.86c-.12.36.06.76.4.9l7.97 3.37.05.02c.3.1.6 0 .8-.23l.97-1.18-10.88 32.04c-.1.34.03.7.34.88a92.76 92.76 0 0 0 32.14 10.9c.35.06.7-.14.8-.48l10.88-32.04.05 1.53a.73.73 0 0 0 .55.7l8.36 2.17c.37.1.75-.1.88-.48l.63-1.86.5-.48c.12-.1.2-.25.23-.4zm-62.9 8.85c-2.78-1.75-5.05-1.66-9.55-1.04-4.45.6-14.2-1.95-16.97-4-2.26-1.7-7.56-8.23-9.74-10.97a3.46 3.46 0 0 0-3-1.3l-1.06-1.25a2.35 2.35 0 0 0-3.54-.07l-1.78 1.93a14 14 0 0 1-5.24-1 2.4 2.4 0 0 0-3.36 2.27c.2 4.2.33 11.84-.84 16.02a25.3 25.3 0 0 0-.53 11.97.6.6 0 0 0 .5.5c5.72.9 14.4 1.74 25.96 1.4 3.9-.1 8.1-.35 12.65-.77h.15c6.8-.64 12.45-2.45 16.8-5.4.72-.48 1.2-1.27 1.34-2.15.24-1.73.33-4.8-1.8-6.13zm-45.52-.86a4.87 4.87 0 1 0-.3-9.73 4.87 4.87 0 0 0 .3 9.74zm32.55-56.75l5.46 6.85 8.6-1.64a.7.7 0 0 1 .7 1.05l-4.8 7.33 4.2 7.68a.7.7 0 0 1-.77 1l-8.45-2.33-6 6.4a.7.7 0 0 1-1.17-.45l-.4-8.75-7.93-3.73a.7.7 0 0 1 .05-1.27l8.2-3.08 1.1-8.7a.7.7 0 0 1 1.2-.35z"/>
        <g fill-rule="nonzero">
            <path d="M239.34 286.05c0-1.43-.42-2.6-1.24-3.53a4.38 4.38 0 0 0-3.45-1.4c-.73 0-1.4.13-2 .37a4.6 4.6 0 0 0-2.64 2.58 5.12 5.12 0 0 0 1.05 5.48 4.85 4.85 0 0 0 3.6 1.45c.74 0 1.4-.13 1.98-.4a4 4 0 0 0 1.47-1.05 5 5 0 0 0 .9-1.58c.23-.6.34-1.24.34-1.92zm3.96.07a9.1 9.1 0 0 1-.6 3.37 7.8 7.8 0 0 1-4.42 4.45 9.1 9.1 0 0 1-3.44.62 7.35 7.35 0 0 1-3.3-.7 4.92 4.92 0 0 1-1.95-1.5v.28c.02.1.03.2.03.33v8.94h-3.66v-23.95h3.5c0 .36.03.7.08 1.07a7 7 0 0 1 .08 1 5.5 5.5 0 0 1 1.94-1.62c.47-.24.98-.44 1.55-.6.58-.17 1.2-.25 1.9-.25 1.24 0 2.37.2 3.4.6 1 .4 1.87.96 2.6 1.7.72.76 1.28 1.66 1.7 2.7.4 1.06.6 2.25.6 3.57zM259.14 279.42a19.12 19.12 0 0 1-1.18 1.6c-.2.25-.37.47-.5.66l-.22.3-.2-.14a3.1 3.1 0 0 0-.54-.3c-.24-.1-.52-.2-.84-.27a2.9 2.9 0 0 0-2.1.1c-.4.17-.6.5-.6 1.02 0 .42.18.78.52 1.07.33.3.75.56 1.25.8s1.04.5 1.63.75c.6.25 1.15.57 1.64.95.5.38.92.85 1.26 1.43.34.57.5 1.27.5 2.1a5 5 0 0 1-.4 2.03c-.25.6-.64 1.13-1.13 1.56-.5.42-1.1.76-1.77 1.02-.7.25-1.46.38-2.32.38a8.78 8.78 0 0 1-3.03-.54 5.32 5.32 0 0 1-2.3-1.52 40.4 40.4 0 0 0 1.37-1.64c.22-.28.42-.5.6-.7l.23-.3s.1.03.25.15a7.87 7.87 0 0 0 1.66.82c.38.12.77.2 1.18.2.63 0 1.12-.15 1.46-.43.35-.28.52-.62.52-1.03 0-.4-.17-.73-.52-.98-.34-.25-.76-.5-1.25-.7-.5-.22-1.04-.46-1.64-.7a7.46 7.46 0 0 1-1.65-.96 4.5 4.5 0 0 1-1.77-3.73c0-.93.17-1.7.5-2.3.33-.6.75-1.1 1.27-1.48a5.1 5.1 0 0 1 1.7-.82 6.8 6.8 0 0 1 1.8-.25 7.03 7.03 0 0 1 4.6 1.82z"/>
        </g>
    </g>
</svg>
