<svg xmlns="http://www.w3.org/2000/svg" viewBox="0 0 512 512">
    <g fill="#ffffff" fill-rule="nonzero">
        <path d="M408.74 143.26a217.93 217.93 0 0 0-37-29.72l14.43-25 16.14 9.3a8 8 0 1 0 8-13.86L364.44 57.5a8 8 0 1 0-8 13.86l15.88 9.17-14.37 24.92A214.54 214.54 0 0 0 264 80.15v-.96A40.07 40.07 0 0 0 296 40c0-22.06-17.94-40-40-40s-40 17.94-40 40a40.07 40.07 0 0 0 32 39.2v.96a214.46 214.46 0 0 0-144.74 63.1C62.46 184.06 40 238.3 40 296s22.47 111.94 63.27 152.74C144.06 489.54 198.3 512 256 512s111.94-22.47 152.74-63.27C449.54 407.94 472 353.7 472 296s-22.47-111.94-63.26-152.74zM232 40c0-13.23 10.77-24 24-24s24 10.77 24 24c0 10.43-6.7 19.32-16 22.62V40a8 8 0 0 0-16 0v22.62c-9.3-3.3-16-12.2-16-22.62zm24 456c-110.28 0-200-89.72-200-200S145.72 96 256 96s200 89.72 200 200-89.72 200-200 200z"/>
        <path d="M412.77 199.63a8 8 0 1 0-13.62 8.4A167.6 167.6 0 0 1 424 296c0 92.64-75.36 168-168 168S88 388.64 88 296s75.36-168 168-168c31.15 0 61.57 8.6 87.95 24.83a8 8 0 1 0 8.4-13.62A183.6 183.6 0 0 0 256 112c-101.46 0-184 82.54-184 184s82.54 184 184 184 184-82.54 184-184a183.6 183.6 0 0 0-27.23-96.37z"/>
        <path d="M368 170.77c4.63 4.15 9.08 8.6 13.22 13.23a7.98 7.98 0 0 0 11.3.63 8 8 0 0 0 .63-11.3c-4.54-5.07-9.4-9.94-14.48-14.48A8 8 0 1 0 368 170.77zM305.94 152.44A151.34 151.34 0 0 0 256 144a8 8 0 0 0-8 8v144a8 8 0 0 0 2.34 5.66l101.83 101.82a7.97 7.97 0 0 0 11.3 0A151 151 0 0 0 408 296a151.77 151.77 0 0 0-4.8-37.97 151 151 0 0 0-13.93-35.06c-.22-.52-.5-1-.83-1.5a152.83 152.83 0 0 0-20.27-27.94 8.08 8.08 0 0 0-1.27-1.36 152.43 152.43 0 0 0-60.96-39.73zM323 177.7l-59 59v-25.4l41.85-41.83c5.93 2.34 11.66 5.1 17.15 8.22zm27.45 20.54L264 284.7v-25.4l72.7-72.7a137 137 0 0 1 13.75 11.64zm21.4 26.6L284 312.7 271.3 300l90-89.98c3.83 4.7 7.36 9.64 10.55 14.8zm14.76 33.24l-78.6 78.6L295.3 324l84.43-84.42a134.98 134.98 0 0 1 6.88 18.5zM392 296c0 1.6-.04 3.2-.1 4.78l-59.9 59.9L319.3 348l71.33-71.3c.9 6.3 1.37 12.75 1.37 19.3zM288.7 163.98l-24.7 24.7v-28.45c8.46.5 16.72 1.78 24.7 3.75zm68.96 222.37L343.3 372l45.22-45.2a134.8 134.8 0 0 1-30.86 59.55z"/>
    </g>
</svg>
