<svg xmlns="http://www.w3.org/2000/svg" viewBox="0 0 495.724 495.724">
    <g fill="#ffffff" fill-rule="nonzero">
        <path d="M192.14 97.7c0 17.23 5.97 33.17 15.53 45.05l-.02 17.3c-.44.7-2.43 2-4.95 2.73l-29.8 7.74-.13.04c-18.96 5.3-28.9 23.9-28.9 39.52v8.63c0 9.46 8.3 17.15 18.46 17.15H333.4c10.16 0 18.44-7.7 18.44-17.16v-8.64c0-15.62-9.92-34.2-28.9-39.52l-.13-.04-29.78-7.74c-2.52-.74-4.5-2.04-4.94-2.73l-.02-16.2.07-.08c10.2-12.2 15.84-28.02 15.84-44.54V87.16c10.2-33.2 3-61.97-.68-70.35l-.05-.08-.23-.46-.14-.26c-.07-.13-.16-.26-.24-.38l-.2-.3-.22-.27c-.1-.12-.18-.24-.3-.36-.04-.07-.1-.13-.16-.2a7.95 7.95 0 0 0-.38-.37l-.15-.12-.44-.36-.17-.12-.46-.3-.24-.14-.42-.23-.3-.14-.4-.16-.36-.12c-.12-.04-.24-.08-.36-.1-.13-.05-.25-.07-.38-.1l-.38-.08-.35-.05-.44-.06h-.3c-.17 0-.34-.02-.5 0h-.26c-.18 0-.37.03-.55.05h-.08c-7.7 1.1-17.1-1.15-27.05-3.53-17.6-4.2-37.45-8.95-54.84 3.58-16.82 1.45-28.74 15.58-28.74 34.68 0 13.9 6.44 38.7 7.92 44.2v6.67zm95.83-11.82V99.2c0 14.1-5.3 27-13.56 35.95 0 .02-.03.04-.05.06-7.1 7.66-16.4 12.38-26.4 12.38-21.2 0-39.8-23.3-39.8-49.88v-2.73c0-7.94 3.35-19.56 5.87-26.9 36.2.82 63.53 9.52 73.95 13.38v4.43zm-15.9 74.27c0 7.2 4.68 12.32 10.35 15.44-8.9 7.72-21.33 12.28-34.5 12.28-13.2 0-25.63-4.57-34.54-12.32 5.63-3.12 10.26-8.22 10.26-15.4v-3.4a47.7 47.7 0 0 0 24.3 6.82c8.5 0 16.7-2.2 24.13-6.35v2.92zm63.77 49.9v8.64c0 .2-.8 1.14-2.44 1.14l-171.07.02c-1.63 0-2.45-.93-2.45-1.15v-8.62c0-9.57 5.9-20.9 17.14-24.1l19.3-5c11.9 14.24 31.16 22.9 51.6 22.9 20.43 0 39.7-8.66 51.58-22.9l19.2 5c11.25 3.18 17.14 14.5 17.14 24.08zm-120-182.03h.1c.22 0 .45-.02.67-.04.1 0 .2-.02.27-.03l.52-.08.3-.08.45-.12.34-.12.38-.14c.12-.06.24-.1.36-.17.12-.06.23-.1.35-.17l.38-.23c.1-.06.2-.1.28-.17.17-.1.33-.24.5-.36.03-.04.08-.07.13-.1 11.75-9.6 27-5.96 43.17-2.1 8.7 2.1 17.62 4.23 26.3 4.26 2.08 7.7 4.13 21.34 1.93 37.6-13.02-4.75-43.54-14-83.85-14h-.07c-.17 0-.34.03-.5.04-.1 0-.2 0-.32.02l-.4.06-.4.07-.23.06-.53.14c-.03 0-.05.03-.08.03a7.83 7.83 0 0 0-1.33.58l-.1.06c-.2.1-.38.22-.55.34l-.32.24-.3.2a7.6 7.6 0 0 0-.4.4l-.15.12-.38.42-.14.16c-.1.12-.2.24-.28.36l-.2.28c-.06.1-.1.2-.17.3-.07.12-.15.25-.22.4-.05.07-.08.15-.12.23l-.15.3a72.5 72.5 0 0 1-.88-9.97c0-8.68 4.1-18.8 15.6-18.8zM179.07 426.33c-.05 0-.1-.02-.15-.04l-29.78-7.74c-2.52-.74-4.5-2.05-4.95-2.73l-.03-16.2.08-.08c10.2-12.2 15.84-28.03 15.84-44.54v-12.06c10.18-33.2 3-61.97-.7-70.35 0-.03-.02-.05-.03-.08a7.88 7.88 0 0 0-.24-.5l-.12-.22c-.08-.15-.17-.3-.27-.43-.05-.08-.1-.17-.16-.24l-.28-.36-.23-.26-.27-.28-.27-.27c-.1-.1-.2-.17-.3-.25-.1-.1-.2-.17-.3-.24-.1-.1-.23-.17-.35-.26l-.26-.18c-.15-.1-.3-.17-.45-.25l-.2-.1c-.2-.1-.37-.18-.55-.25l-.16-.07a7.8 7.8 0 0 0-.56-.2c-.06 0-.1-.03-.17-.04l-.53-.12c-.08 0-.16-.03-.24-.05l-.45-.06-.33-.03h-.36c-.14-.02-.3-.02-.45-.02-.1 0-.18 0-.27.02-.18 0-.37.03-.55.05h-.07c-7.7 1.1-17.1-1.15-27.05-3.53-17.6-4.22-37.43-8.96-54.82 3.58-16.82 1.44-28.74 15.57-28.74 34.67 0 13.9 6.44 38.7 7.92 44.2v6.67c0 17.23 5.96 33.16 15.53 45.05l-.04 17.3c-.43.68-2.42 2-4.94 2.73l-29.8 7.73c-.04.03-.08.04-.13.05C9.9 431.67 0 450.25 0 465.87v8.64c0 9.46 8.27 17.15 18.44 17.15l171.07-.02c10.18 0 18.45-7.7 18.45-17.14v-8.65c0-15.6-9.92-34.2-28.88-39.52zm-114.8-75.57c0-7.94 3.35-19.56 5.86-26.9 36.2.83 63.53 9.52 73.96 13.38V355c0 14.1-5.3 27-13.58 35.94l-.06.07c-7.1 7.66-16.4 12.37-26.4 12.37-21.2 0-39.8-23.3-39.8-49.88v-2.74zm15.5 65.2v-3.4a47.7 47.7 0 0 0 24.3 6.8c8.48 0 16.68-2.18 24.12-6.34v2.92c0 7.2 4.67 12.32 10.34 15.44-8.9 7.74-21.33 12.3-34.5 12.3-13.2 0-25.64-4.57-34.55-12.32 5.63-3.13 10.26-8.23 10.26-15.4zm-7.83-132.14h.1c.24 0 .46-.02.7-.04.08 0 .16-.03.25-.04.16-.02.33-.04.5-.08l.32-.07.44-.13c.12-.03.23-.08.34-.12l.4-.14c.12-.04.24-.1.35-.16l.35-.16.4-.24.27-.16.5-.36.13-.1c11.76-9.6 27.02-5.96 43.18-2.1 8.7 2.1 17.63 4.22 26.3 4.26 2.08 7.7 4.13 21.34 1.93 37.58-13-4.74-43.53-13.97-83.84-13.97h-.07c-.18 0-.34 0-.5.02-.1 0-.22 0-.32.02-.13 0-.26.04-.38.06l-.42.07c-.07 0-.15.03-.22.05l-.55.15-.04.02a8 8 0 0 0-1.36.58c-.02 0-.04.02-.05.03l-.6.37-.28.22c-.1.07-.2.14-.3.23-.16.1-.3.24-.42.37l-.16.14c-.14.13-.26.27-.38.4l-.15.18c-.1.1-.18.24-.27.36l-.2.27-.18.3-.23.4c-.05.07-.1.15-.12.23l-.15.3a72.5 72.5 0 0 1-.9-9.95c0-8.68 4.1-18.8 15.6-18.8zm120 190.67c0 .2-.8 1.13-2.43 1.13l-171.06.02c-1.63 0-2.44-.93-2.44-1.14v-8.63c0-9.57 5.9-20.9 17.13-24.1l19.3-5c11.9 14.24 31.17 22.9 51.6 22.9s39.7-8.66 51.58-22.9l19.22 5c11.25 3.18 17.13 14.52 17.13 24.08v8.64zM466.84 426.34l-.15-.04-29.8-7.74c-2.5-.74-4.5-2.05-4.94-2.73l-.02-16.2.08-.08c10.2-12.2 15.83-28.03 15.83-44.54v-12.06c10.2-33.2 3-61.97-.67-70.35 0-.03-.03-.05-.04-.08a7.48 7.48 0 0 0-.24-.48 7.93 7.93 0 0 0-.4-.65c-.05-.1-.1-.18-.17-.27-.08-.1-.17-.2-.25-.32l-.25-.3c-.08-.1-.16-.17-.24-.25l-.32-.3c-.07-.08-.16-.15-.24-.22-.1-.1-.22-.2-.34-.28l-.3-.2c-.1-.08-.2-.16-.33-.23l-.38-.22-.28-.15c-.16-.08-.32-.14-.48-.2l-.22-.1a7.76 7.76 0 0 0-.52-.18l-.2-.06a7.74 7.74 0 0 0-.52-.1l-.25-.07-.45-.05-.35-.04c-.1 0-.23 0-.35-.02h-.46c-.1 0-.2 0-.28.02-.18 0-.36.02-.54.05h-.08c-7.7 1.1-17.1-1.15-27.04-3.54-17.6-4.2-37.45-8.95-54.84 3.6-16.8 1.43-28.74 15.56-28.74 34.66 0 13.9 6.45 38.7 7.93 44.2v6.67c0 17.23 5.96 33.16 15.52 45.04l-.02 17.3c-.43.7-2.43 2-4.95 2.74l-29.78 7.73c-.05.03-.1.04-.15.05-18.96 5.32-28.88 23.9-28.88 39.52v8.63c0 9.46 8.27 17.15 18.44 17.15l171.08-.02c10.17 0 18.44-7.7 18.44-17.14v-8.65c0-15.6-9.92-34.2-28.88-39.5zm-114.8-75.58c0-7.94 3.35-19.56 5.86-26.9 36.2.83 63.53 9.52 73.96 13.38V355c0 14.1-5.3 27-13.57 35.94l-.07.06c-7.1 7.65-16.4 12.38-26.4 12.38-21.2 0-39.8-23.3-39.8-49.9v-2.72zm15.5 65.2v-3.4a47.7 47.7 0 0 0 24.3 6.8c8.48 0 16.68-2.18 24.12-6.34v2.92c0 7.2 4.68 12.32 10.35 15.44-8.9 7.74-21.32 12.3-34.5 12.3-13.2 0-25.63-4.57-34.54-12.32 5.64-3.13 10.27-8.23 10.27-15.4zm-7.83-132.14h.12c.22 0 .45-.02.68-.04.08 0 .17-.03.26-.04.17-.02.34-.04.5-.08l.33-.07c.14-.05.3-.08.43-.13.12-.03.23-.08.34-.12l.4-.14c.12-.04.24-.1.36-.16l.34-.16.4-.24.27-.16.5-.36.13-.1c11.76-9.6 27.02-5.96 43.18-2.1 8.7 2.1 17.63 4.22 26.3 4.26 2.1 7.7 4.13 21.34 1.93 37.58-13-4.74-43.54-13.97-83.85-13.97h-.07a8 8 0 0 0-.5.02c-.1 0-.2 0-.3.02-.14 0-.26.04-.4.06l-.4.07c-.08 0-.15.03-.22.05l-.56.15s-.03 0-.04.02a7.9 7.9 0 0 0-1.37.58l-.04.03-.6.37-.28.22c-.1.07-.22.14-.32.23-.14.12-.28.24-.4.37l-.16.14-.38.4-.15.18c-.1.1-.2.24-.28.36-.06.1-.13.18-.2.27-.06.1-.1.2-.17.3l-.24.4-.1.24-.16.3a72.5 72.5 0 0 1-.9-9.97c0-8.68 4.1-18.8 15.6-18.8zM479.73 474.5c0 .2-.8 1.13-2.44 1.13l-171.07.02c-1.62 0-2.43-.93-2.43-1.14v-8.63c0-9.56 5.88-20.9 17.13-24.1l19.3-5c11.9 14.24 31.16 22.9 51.6 22.9 20.43 0 39.7-8.66 51.58-22.9l19.2 5c11.26 3.18 17.14 14.52 17.14 24.1v8.62z"/>
        <path d="M323.64 113.54C366.32 140 391.8 185.76 391.8 235.9a8 8 0 0 0 16 0c0-27.7-7.2-55-20.83-78.94a160.94 160.94 0 0 0-54.9-57 8 8 0 1 0-8.43 13.58zM96.04 243.9a8 8 0 0 0 8-8c0-50.15 25.48-95.9 68.16-122.36a8 8 0 0 0-8.44-13.6 160.94 160.94 0 0 0-54.9 57 159.9 159.9 0 0 0-20.82 78.97 8 8 0 0 0 8 8zM319.12 370.33a8 8 0 0 0-10.63-3.88 142.65 142.65 0 0 1-60.58 13.33c-21.17 0-41.56-4.48-60.6-13.34a8 8 0 1 0-6.74 14.5 158.53 158.53 0 0 0 67.34 14.84c23.5 0 46.16-4.98 67.32-14.82a8 8 0 0 0 3.88-10.63z"/>
    </g>
</svg>
