<svg viewBox="0 0 1280 1280" xmlns="http://www.w3.org/2000/svg" fill-rule="evenodd" clip-rule="evenodd" stroke-linejoin="round" stroke-miterlimit="1.41">
    <path d="M70.92 249.8c-12.14 0-22.01 9.87-22.01 22 0 12.14 9.87 22.01 22 22.01 12.14 0 22.01-9.87 22.01-22 0-12.14-9.87-22.01-22-22.01zm0 34.23a12.24 12.24 0 0 1-12.23-12.23 12.24 12.24 0 0 1 24.45 0c0 6.75-5.49 12.23-12.22 12.23z" fill-rule="nonzero"/>
    <circle cx="50" cy="9.13" r="1" transform="matrix(4.8906 0 0 4.8906 19.56 219.84)"/>
    <circle cx="46" cy="9.13" r="1" transform="matrix(4.8906 0 0 4.8906 19.56 219.84)"/>
    <circle cx="52" cy="12.13" r="1" transform="matrix(4.8906 0 0 4.8906 19.56 219.84)"/>
    <circle cx="48" cy="12.13" r="1" transform="matrix(4.8906 0 0 4.8906 19.56 219.84)"/>
    <circle cx="42" cy="9.13" r="1" transform="matrix(4.8906 0 0 4.8906 19.56 219.84)"/>
    <circle cx="44" cy="12.13" r="1" transform="matrix(4.8906 0 0 4.8906 19.56 219.84)"/>
    <circle cx="38" cy="9.13" r="1" transform="matrix(4.8906 0 0 4.8906 19.56 219.84)"/>
    <circle cx="40" cy="12.13" r="1" transform="matrix(4.8906 0 0 4.8906 19.56 219.84)"/>
    <circle cx="34" cy="9.13" r="1" transform="matrix(4.8906 0 0 4.8906 19.56 219.84)"/>
    <circle cx="36" cy="12.13" r="1" transform="matrix(4.8906 0 0 4.8906 19.56 219.84)"/>
    <path d="M70.92 342.72c-12.14 0-22.01 9.87-22.01 22 0 12.14 9.87 22.01 22 22.01 12.14 0 22.01-9.87 22.01-22 0-12.14-9.87-22.01-22-22.01zm0 34.23a12.24 12.24 0 0 1-12.23-12.23 12.24 12.24 0 0 1 24.45 0c0 6.75-5.49 12.23-12.22 12.23zM70.92 435.64c-12.14 0-22.01 9.87-22.01 22 0 12.14 9.87 22.01 22 22.01 12.14 0 22.01-9.87 22.01-22 0-12.14-9.87-22.01-22-22.01zm0 34.23a12.24 12.24 0 0 1-12.23-12.22 12.24 12.24 0 0 1 24.45 0c0 6.74-5.49 12.22-12.22 12.22z" fill-rule="nonzero"/>
    <path d="M313 300.62v-57.63a22.56 22.56 0 0 0-22.54-22.54H42.1A22.56 22.56 0 0 0 19.56 243v57.62a22.4 22.4 0 0 0 8.7 17.65 22.43 22.43 0 0 0-8.7 17.65v57.63a22.4 22.4 0 0 0 8.7 17.64 22.43 22.43 0 0 0-8.7 17.65v57.63a22.56 22.56 0 0 0 22.54 22.53h136.33a233.73 233.73 0 0 0 41.65 3.67c42.41 0 87.13-11 92.4-32.05.33-.65.52-1.4.52-2.18V342.72a4.8 4.8 0 0 0-.47-2.04c-1.7-7.16-8.06-13.19-17.42-18.02A22.57 22.57 0 0 0 313 300.62zM29.35 393.54v-57.63c0-7.03 5.72-12.76 12.75-12.76h102.02c-8.85 4.75-14.85 10.61-16.5 17.53-.28.63-.46 1.3-.46 2.04v63.58H42.1a12.77 12.77 0 0 1-12.75-12.76zM140 363.53l.68.42c.86.54 1.76 1.07 2.69 1.59l.8.44c1.14.6 2.32 1.2 3.55 1.78l.6.27c1.08.49 2.2.96 3.34 1.43l1 .4c1.36.53 2.73 1.05 4.15 1.54l.24.08a123.58 123.58 0 0 0 5.33 1.68c1.41.41 2.84.81 4.3 1.2.12.02.23.06.35.09 1.58.4 3.18.78 4.82 1.15l1.23.27c1.4.3 2.82.59 4.24.86l.86.17c1.67.31 3.37.6 5.09.87l1.22.2c1.43.21 2.86.42 4.3.61l1.2.16c1.75.22 3.5.42 5.28.6a269.06 269.06 0 0 0 5.57.5l1.36.12c1.8.13 3.6.25 5.4.34l.78.04c1.59.07 3.18.13 4.78.18l1.44.04a255.17 255.17 0 0 0 10.94 0l1.44-.04c1.6-.05 3.18-.1 4.78-.18l.77-.04a246.42 246.42 0 0 0 11.26-.85l1.07-.1a226.55 226.55 0 0 0 10.78-1.39l1.23-.19c1.72-.27 3.41-.56 5.1-.87l.84-.17c1.44-.27 2.85-.56 4.24-.86l1.24-.27c1.63-.37 3.24-.75 4.82-1.15l.34-.1a127.38 127.38 0 0 0 5.46-1.53 123.58 123.58 0 0 0 4.41-1.42c1.43-.5 2.8-1 4.15-1.54.34-.13.68-.26 1-.4 1.15-.47 2.26-.94 3.34-1.43l.6-.27a70.84 70.84 0 0 0 3.56-1.78l.8-.44c.93-.52 1.82-1.04 2.69-1.59l.68-.42a45.39 45.39 0 0 0 2.88-2.03c.06-.04.13-.08.18-.13v24.4c-.11.57-.2 1.14-.1 1.73.07.35.12.7.12 1.07 0 .53-.15 1.08-.28 1.63a8.48 8.48 0 0 1-.98 2.37 12.62 12.62 0 0 1-2 2.63c-.17.2-.36.39-.55.59-10.35 10.01-40.9 19.06-79.33 19.06-38.4 0-68.93-9.04-79.3-19.05-.22-.22-.41-.43-.6-.64a12.21 12.21 0 0 1-2.52-3.68c-.2-.44-.33-.88-.44-1.32-.13-.53-.28-1.07-.28-1.6 0-.34.04-.69.1-1.03.1-.64.04-1.27-.1-1.88v-24.28c.06.04.13.08.18.13.9.7 1.87 1.37 2.88 2.03zm162.52 71.95a12.62 12.62 0 0 1-2.56 3.74l-.56.58c-10.35 10.02-40.9 19.06-79.32 19.06-38.4 0-68.93-9.03-79.3-19.04-.22-.22-.42-.43-.61-.65a12.21 12.21 0 0 1-2.52-3.68c-.2-.44-.33-.88-.43-1.32-.12-.46-.23-.92-.25-1.38v-.59c.02-.22.03-.44.07-.66.06-.42-.03-.83-.07-1.25l-.03-24v-.9l.63.44a49.35 49.35 0 0 0 3.58 2.41c.88.54 1.76 1.07 2.7 1.59l.02.01c10.2 5.56 24.23 9.58 39.74 12l.35.06c5 .78 10.14 1.39 15.36 1.83a181.2 181.2 0 0 0 6.61.47c1.48.09 2.96.16 4.44.22l2.58.1a246.9 246.9 0 0 0 14.25 0 261.33 261.33 0 0 0 10.3-.52c1.1-.07 2.19-.17 3.29-.26a224.7 224.7 0 0 0 15.5-1.84l.22-.04c16.95-2.65 32.1-7.2 42.46-13.59a53.3 53.3 0 0 0 3.57-2.4c.22-.16.47-.31.68-.48v24.4c-.11.56-.2 1.14-.1 1.72.05.36.1.71.1 1.07 0 .54-.15 1.09-.28 1.63-.11.42-.24.85-.42 1.27zM42.1 499.22a12.77 12.77 0 0 1-12.75-12.76v-57.63c0-7.03 5.72-12.75 12.75-12.75h85.06v67.24h1.44c.08.18.2.36.28.54a20.7 20.7 0 0 0 1.92 3.23 24.82 24.82 0 0 0 2.6 3.09 38.88 38.88 0 0 0 6.71 5.43l.28.18c1.87 1.2 3.9 2.35 6.1 3.43H42.1zm261.12-22.04l-.1.46c-2 12.2-35.85 25.24-83.04 25.24-15.06 0-28.73-1.33-40.48-3.54v-.04c-24.31-4.6-37.77-12.37-41.54-18.92v-.02c-.18-.3-.3-.6-.43-.9a8.34 8.34 0 0 1-.6-1.82l-.03-28.2c.17.14.38.27.56.4a49.35 49.35 0 0 0 3.59 2.42 61.11 61.11 0 0 0 2.72 1.6c10.2 5.56 24.23 9.58 39.73 12l.36.06c5 .78 10.13 1.39 15.36 1.83a181.2 181.2 0 0 0 6.61.47c1.48.09 2.95.16 4.43.22l2.59.1c2.38.07 4.76.12 7.13.12s4.74-.05 7.11-.12c.88-.02 1.74-.06 2.61-.1a261.33 261.33 0 0 0 7.7-.42c1.1-.07 2.19-.17 3.28-.26a224.7 224.7 0 0 0 15.5-1.84l.23-.04c16.94-2.65 32.1-7.2 42.45-13.59a53.3 53.3 0 0 0 3.57-2.4c.22-.16.47-.31.69-.48v27.77zm0-132.63c0 12.4-35.56 26.29-83.14 26.29-47.59 0-83.14-13.88-83.14-26.29 0-.62.15-1.26.33-1.9.2-.63.46-1.27.85-1.94l.05-.09c1.62-2.72 4.9-5.64 9.96-8.46a79.7 79.7 0 0 1 3.4-1.75 77.06 77.06 0 0 1 4.24-1.85 126.98 126.98 0 0 1 20.23-5.91c2.42-.51 4.87-1 7.4-1.41l2-.34a238.7 238.7 0 0 1 69.33 0c.7.1 1.36.23 2.04.34 2.5.42 4.95.9 7.34 1.4 23.84 5.08 39.1 13.8 39.1 21.91zm0-43.93c0 7.03-5.72 12.75-12.76 12.75h-22.64l-.88-.16c-3.2-.7-6.5-1.32-9.88-1.86l-.99-.15a237.25 237.25 0 0 0-36-2.72c-12.12 0-24.43.93-35.98 2.72l-1 .15c-3.37.54-6.66 1.16-9.86 1.85-.29.07-.61.1-.9.17H42.1a12.76 12.76 0 0 1-12.75-12.75v-57.63c0-7.03 5.72-12.76 12.75-12.76h248.36c7.04 0 12.76 5.73 12.76 12.76v57.63z" fill-rule="nonzero"/>
    <g transform="translate(989.18 220.45) scale(5.31289)">
        <circle cx="7.5" cy="29" r="1"/>
        <circle cx="7.5" cy="35" r="1"/>
        <circle cx="10.5" cy="32" r="1"/>
        <circle cx="16.5" cy="32" r="1"/>
        <circle cx="13.5" cy="35" r="1"/>
        <circle cx="19.5" cy="35" r="1"/>
        <circle cx="22.5" cy="32" r="1"/>
        <circle cx="28.5" cy="32" r="1"/>
        <circle cx="25.5" cy="35" r="1"/>
        <circle cx="31.5" cy="35" r="1"/>
        <circle cx="34.5" cy="32" r="1"/>
        <circle cx="40.5" cy="32" r="1"/>
        <circle cx="37.5" cy="35" r="1"/>
        <circle cx="43.5" cy="35" r="1"/>
        <circle cx="46.5" cy="32" r="1"/>
        <circle cx="49.5" cy="29" r="1"/>
        <circle cx="16.5" cy="38" r="1"/>
        <circle cx="22.5" cy="38" r="1"/>
        <circle cx="28.5" cy="38" r="1"/>
        <circle cx="34.5" cy="38" r="1"/>
        <circle cx="40.5" cy="38" r="1"/>
        <path d="M52.43 8.65a.77.77 0 0 0-.03-.07l-.02-.06C51.16 3.64 40.6 0 27.5 0 14.4 0 3.84 3.64 2.62 8.52l-.02.06a.98.98 0 0 0-.1.42v37c0 .16.04.31.12.45C3.8 51.35 14.36 55 27.5 55c13.1 0 23.66-3.64 24.88-8.52.07-.14.12-.3.12-.48V9a.98.98 0 0 0-.07-.35zm-5.3 28.6a.98.98 0 0 0-.63-.25 1 1 0 0 0-1 1v.03c-2 .85-4.56 1.57-7.54 2.1a.97.97 0 0 0-.46-.13c-.3 0-.55.13-.73.33-1.36.2-2.8.37-4.3.48a.99.99 0 0 0-.97-.81 1 1 0 0 0-.98.93c-.99.04-1.99.07-3.02.07l-1-.02a1 1 0 1 0-1.98-.05 61.98 61.98 0 0 1-4.1-.31.98.98 0 1 0-1.7-.22c-2.87-.41-5.4-1-7.5-1.72A1 1 0 0 0 10.5 37a1 1 0 0 0-1 1v.04c-3.18-1.35-5-2.98-5-4.54 0-.11.01-.23.03-.34V33a1 1 0 0 0-.03-2v-4a1 1 0 0 0 .99-.93 23.15 23.15 0 0 0 7.04 3.1c.08.46.48.83.97.83.32 0 .6-.16.77-.4 3.83.9 8.35 1.4 13.23 1.4 5.67 0 10.86-.68 15.03-1.85a.99.99 0 1 0 1.86-.58c2.62-.9 4.7-2.02 6.11-3.28v7.43a1 1 0 0 0-.03.44c.02.11.03.23.03.34 0 .3-.09.6-.22.9a.98.98 0 0 0-.78-.4 1 1 0 0 0-.4 1.91c-.52.46-1.18.9-1.97 1.33zm3.37-15.5c0 .03-.03.05-.03.09C49.9 25.3 40.54 29 27.5 29S5.1 25.3 4.53 21.84c0-.04-.02-.06-.03-.1v-8.47C7.93 16.43 15.74 19 27.5 19s19.57-2.57 23-5.73v8.48zM27.5 2c13.04 0 22.4 3.7 22.97 7.16l.03.34c0 3.55-9.45 7.5-23 7.5s-23-3.95-23-7.5l.03-.33C5.1 5.7 14.46 2 27.5 2zm22.97 43.84C49.9 49.3 40.54 53 27.5 53S5.1 49.3 4.53 45.84c0-.05-.02-.1-.03-.13v-8.44C7.93 40.43 15.74 43 27.5 43s19.57-2.57 23-5.73v8.43l-.03.14z" fill-rule="nonzero"/>
    </g>
    <g>
        <path d="M856.8 623.71a73.04 73.04 0 0 0-72.96 72.97c0 12.58 3.2 24.43 8.83 34.78l-79.4 76.6a96.59 96.59 0 0 0-119.11-.02l-36.36-36.36a48 48 0 0 0 6.9-24.55 48.7 48.7 0 0 0-48.65-48.64 48.7 48.7 0 0 0-48.64 48.64 48.7 48.7 0 0 0 48.64 48.64 48 48 0 0 0 24.55-6.9l36.36 36.37a96.65 96.65 0 0 0 0 119.11l-64.98 55.46a72.61 72.61 0 0 0-48.94-19 73.04 73.04 0 0 0-72.96 72.96 73.04 73.04 0 0 0 72.96 72.97 73.04 73.04 0 0 0 72.96-72.97c0-12.58-3.2-24.43-8.82-34.78l66.99-57.44a96.71 96.71 0 0 0 47.4 19.69v80.8c-34.45 5.82-60.8 35.78-60.8 71.87a73.04 73.04 0 0 0 72.96 72.97 73.04 73.04 0 0 0 72.97-72.97c0-36.08-26.36-66.04-60.8-71.87v-80.8a96.71 96.71 0 0 0 47.4-19.7l93.25 93.27a47.97 47.97 0 0 0-6.9 24.56 48.7 48.7 0 0 0 48.64 48.64 48.7 48.7 0 0 0 48.64-48.64 48.7 48.7 0 0 0-48.64-48.64 48 48 0 0 0-24.55 6.9l-93.26-93.26a96.65 96.65 0 0 0 0-119.11l77.4-74.61a72.56 72.56 0 0 0 48.92 19 73.04 73.04 0 0 0 72.97-72.97 73.04 73.04 0 0 0-72.97-72.97zM491.73 747.13a24.35 24.35 0 0 1 24.32-24.32 24.35 24.35 0 0 1 24.32 24.32 24.35 24.35 0 0 1-24.32 24.32 24.35 24.35 0 0 1-24.32-24.32zm-28.69 355.29a48.7 48.7 0 0 1-48.64-48.65 48.7 48.7 0 0 1 48.64-48.64 48.7 48.7 0 0 1 48.64 48.64 48.7 48.7 0 0 1-48.64 48.65zm239.32 31.5a48.7 48.7 0 0 1-48.64 48.64 48.7 48.7 0 0 1-48.64-48.65 48.7 48.7 0 0 1 48.64-48.64 48.7 48.7 0 0 1 48.64 48.64zm-48.64-176.15a73.04 73.04 0 0 1-72.96-72.97 73.04 73.04 0 0 1 72.96-72.96 73.04 73.04 0 0 1 72.96 72.96 73.04 73.04 0 0 1-72.96 72.97zm218.9 121.6a24.35 24.35 0 0 1-24.33 24.32 24.35 24.35 0 0 1-24.32-24.32 24.35 24.35 0 0 1 24.32-24.32 24.35 24.35 0 0 1 24.32 24.32zM856.8 745.32a48.7 48.7 0 0 1-48.64-48.64 48.7 48.7 0 0 1 48.64-48.64 48.7 48.7 0 0 1 48.64 48.64 48.7 48.7 0 0 1-48.64 48.64z" fill-rule="nonzero"/>
        <path d="M642.57 946.78h-4v-26.16h3.83c0 .39.03.78.09 1.17.05.38.08.74.08 1.08.22-.28.5-.58.85-.9.35-.32.77-.6 1.27-.87a8.9 8.9 0 0 1 1.68-.67 7.4 7.4 0 0 1 2.06-.27c1.36 0 2.6.22 3.7.65a7.85 7.85 0 0 1 2.85 1.87c.8.82 1.4 1.8 1.85 2.95.45 1.15.67 2.45.67 3.89 0 1.33-.22 2.56-.67 3.68a8.52 8.52 0 0 1-4.82 4.86 9.93 9.93 0 0 1-3.74.7 8.03 8.03 0 0 1-3.6-.78 5.37 5.37 0 0 1-2.14-1.64c0 .11 0 .21.02.31l.02.35v9.78zm32.23-24.58a21.9 21.9 0 0 1-1.29 1.75l-.56.73-.23.3-.2-.14c-.14-.1-.35-.2-.6-.31a7.75 7.75 0 0 0-.92-.31 3.18 3.18 0 0 0-2.29.12c-.43.18-.64.55-.64 1.1 0 .48.18.87.56 1.19.37.32.83.61 1.37.87.54.27 1.14.54 1.79.81.65.28 1.24.63 1.78 1.04.55.42 1 .94 1.38 1.56a5.44 5.44 0 0 1 .12 4.51c-.29.67-.7 1.24-1.25 1.71-.54.47-1.18.85-1.93 1.12-.75.28-1.6.42-2.54.42a9.6 9.6 0 0 1-3.3-.58 5.81 5.81 0 0 1-2.52-1.67 47.72 47.72 0 0 0 1.5-1.79 36.92 36.92 0 0 1 .91-1.08c0-.02.1.02.27.15a8.27 8.27 0 0 0 1.81.9c.42.13.85.2 1.3.2.69 0 1.22-.15 1.6-.46.37-.3.55-.68.55-1.12 0-.44-.18-.8-.56-1.08a7.02 7.02 0 0 0-1.37-.77l-1.79-.77a8.16 8.16 0 0 1-1.78-1.04 4.91 4.91 0 0 1-1.93-4.07c0-1 .17-1.83.53-2.5.36-.66.83-1.2 1.4-1.62a5.58 5.58 0 0 1 1.85-.9 7.45 7.45 0 0 1 1.95-.26 7.66 7.66 0 0 1 5.03 2zm-21.63 7.24c0-1.56-.45-2.84-1.35-3.85a4.78 4.78 0 0 0-3.76-1.52c-.8 0-1.54.13-2.2.4a5.03 5.03 0 0 0-2.87 2.83 5.57 5.57 0 0 0 1.14 5.99 5.3 5.3 0 0 0 1.72 1.14c.67.27 1.4.41 2.2.41.81 0 1.53-.14 2.17-.41a4.39 4.39 0 0 0 1.6-1.17c.43-.5.76-1.07 1-1.72.23-.65.35-1.35.35-2.1zm-60.7-4.47a72.97 72.97 0 0 1-11.92-40.08 73.39 73.39 0 0 1 73.35-73.35 73.39 73.39 0 0 1 73.35 73.35 72.97 72.97 0 0 1-11.92 40.08 163.05 163.05 0 0 0-61.43-11.94c-21.72 0-42.46 4.24-61.43 11.94zm124.57-47.64c3.41-17.37-1.08-22.12-1.28-22.31a.8.8 0 0 0-.12-.1l-11.1-7.3-1.08-4.27a.8.8 0 0 0-.52-.56l-12.75-4.33a.8.8 0 0 0-.76.13l-3.45 2.72-13.24-.96h-.17c-.27.04-6.73 1.06-14.6 16.92a.8.8 0 0 0-.07.49l.13.75-.7 2.04a.8.8 0 0 0 .46 1l8.69 3.66.05.03c.31.1.66 0 .88-.26l1.05-1.29-11.88 35a.8.8 0 0 0 .37.95 101.24 101.24 0 0 0 35.1 11.92.8.8 0 0 0 .87-.54l11.89-34.99.05 1.67a.8.8 0 0 0 .6.75l9.12 2.39c.41.1.83-.12.97-.52l.69-2.04.56-.52a.8.8 0 0 0 .24-.43zm-68.66 9.65c-3.04-1.9-5.52-1.8-10.44-1.13-4.85.66-15.5-2.12-18.52-4.38-2.46-1.84-8.26-8.98-10.63-11.96-.8-1-2.02-1.52-3.28-1.42l-1.14-1.37a2.57 2.57 0 0 0-3.87-.1l-1.94 2.12c-2.84-.07-4.7-.65-5.73-1.1a2.61 2.61 0 0 0-3.67 2.48c.2 4.58.37 12.93-.92 17.5a27.64 27.64 0 0 0-.57 13.07c.04.28.27.5.55.54 6.24 1 15.7 1.91 28.34 1.55 4.24-.13 8.85-.4 13.8-.86l.17-.01c7.42-.69 13.59-2.66 18.33-5.87.8-.54 1.34-1.4 1.47-2.36.27-1.88.36-5.25-1.95-6.7zm-49.71-.93a5.32 5.32 0 1 0-.32-10.64 5.32 5.32 0 0 0 .32 10.64zm35.53-61.98l5.97 7.48 9.4-1.8a.75.75 0 0 1 .77 1.16l-5.26 7.98 4.6 8.39a.75.75 0 0 1-.85 1.08l-9.23-2.53-6.54 6.97a.75.75 0 0 1-1.3-.48l-.44-9.56-8.66-4.07a.75.75 0 0 1 .06-1.38l8.95-3.37 1.2-9.5a.75.75 0 0 1 1.33-.37z"/>
    </g>
    <g>
        <path d="M769.65 317.7c22.99-25.9 37-59.97 37-97.25 0-38.79-15.17-74.08-39.83-100.34l-.07-.07A146.3 146.3 0 0 0 665 73.87v-.01l-2.87-.08c-.73-.02-1.47-.05-2.22-.05-.74 0-1.48.03-2.22.05l-2.85.08a146.3 146.3 0 0 0-101.74 46.18l-.07.06v.01a146.1 146.1 0 0 0-39.83 100.34c0 37.28 14 71.34 36.99 97.25.03.05.03.1.06.14.1.13.23.19.32.3a146.39 146.39 0 0 0 104.26 48.9l2.86.08c.74.03 1.48.05 2.22.05.75 0 1.49-.02 2.22-.05l2.85-.08a146.38 146.38 0 0 0 104.35-49c.07-.09.18-.11.24-.2.04-.04.04-.1.07-.14zm-246.2-92.19h60.73a186.97 186.97 0 0 0 12.21 61.81 186.55 186.55 0 0 0-41.03 20.9 135.97 135.97 0 0 1-31.91-82.7zm34.67-96a186.1 186.1 0 0 0 39.97 19.63 186.82 186.82 0 0 0-13.91 66.25h-60.73a136 136 0 0 1 34.67-85.89zm238.28 85.88h-60.73a186.82 186.82 0 0 0-13.91-66.25 186.1 186.1 0 0 0 39.97-19.64 136 136 0 0 1 34.67 85.9zm-141.54-65.95a176.86 176.86 0 0 1-42.85-6.5 177.01 177.01 0 0 1 42.85-55.83v62.33zm0 10.11v55.84H594.3c.63-22 5.24-43.33 13.5-63.11 15.2 4.4 31 6.84 47.07 7.27zm10.12 0a186.78 186.78 0 0 0 47.09-7.27 176.7 176.7 0 0 1 13.49 63.11h-60.58v-55.84zm0-10.11V87.1a177.01 177.01 0 0 1 42.86 55.83 176.86 176.86 0 0 1-42.86 6.5zm52.66-9.57a186.84 186.84 0 0 0-39.9-54.82 136.2 136.2 0 0 1 76.81 37.02 175.97 175.97 0 0 1-36.9 17.8zm-115.44 0a175.81 175.81 0 0 1-36.9-17.8 136.19 136.19 0 0 1 76.81-37.02 186.76 186.76 0 0 0-39.9 54.82zm-7.9 85.64h60.56v50.79a186.6 186.6 0 0 0-48.87 7.8 176.7 176.7 0 0 1-11.7-58.59zm60.56 60.9v67.38a176.92 176.92 0 0 1-44.94-60.29 176.4 176.4 0 0 1 44.94-7.09zm10.12 67.38v-67.38a176.4 176.4 0 0 1 44.95 7.09 176.9 176.9 0 0 1-44.95 60.3zm0-77.5v-50.78h60.57a176.62 176.62 0 0 1-11.7 58.59 186.32 186.32 0 0 0-48.87-7.8zm70.69-50.78h60.73a135.94 135.94 0 0 1-31.91 82.71 186.55 186.55 0 0 0-41.04-20.9 186.84 186.84 0 0 0 12.22-61.8zM562.23 315.8a176.32 176.32 0 0 1 38.03-19.13 186.69 186.69 0 0 0 41.85 59.18 136.3 136.3 0 0 1-79.88-40.05zm115.5 40.05a186.57 186.57 0 0 0 41.85-59.18 176.43 176.43 0 0 1 38.03 19.13 136.3 136.3 0 0 1-79.87 40.05z" fill-rule="nonzero"/>
    </g>
    <g>
        <path d="M62.55 569.74v-34.99h23.23v5.33H68.41v9.4h15.45v5.48H68.41v9.31h18.05v5.47h-23.9zM92.26 569.74v-34.99h9.9c1.91 0 3.66.26 5.25.77a11.4 11.4 0 0 1 4.03 2.2 9.76 9.76 0 0 1 2.57 3.56c.6 1.4.91 2.99.91 4.75 0 .96-.1 1.92-.29 2.88-.19.96-.5 1.89-.91 2.78a10.04 10.04 0 0 1-4.03 4.42 3173.86 3173.86 0 0 1 4.1 6.53 855.85 855.85 0 0 0 4.54 7.1h-7.06l-4.08-6.36c-1.28-2-2.51-3.9-3.7-5.69h-5.37v12.05h-5.86zm5.86-17.57h4.7a5.97 5.97 0 0 0 4.94-2.14c.49-.58.82-1.22 1.02-1.91.19-.69.28-1.32.28-1.9 0-.54-.08-1.16-.26-1.85a5.39 5.39 0 0 0-2.86-3.48 6.64 6.64 0 0 0-3.07-.62h-4.75v11.9zM128.65 552.17h4.7c1.22 0 2.23-.2 3.03-.62a5.68 5.68 0 0 0 2.92-3.53c.2-.69.3-1.3.3-1.85a7.4 7.4 0 0 0-.27-1.8 5.39 5.39 0 0 0-2.86-3.48 6.64 6.64 0 0 0-3.07-.62h-4.75v11.9zm-5.86 17.57v-34.99h9.89c1.92 0 3.67.26 5.26.77a11.4 11.4 0 0 1 4.03 2.2 9.76 9.76 0 0 1 2.57 3.56c.6 1.4.9 2.99.9 4.75 0 1.4-.2 2.8-.62 4.2-.41 1.4-1.1 2.64-2.04 3.74s-2.16 2-3.67 2.7c-1.5.68-3.36 1.02-5.57 1.02h-4.9v12.05h-5.85zM157.74 570.65c2.3-6.17 4.56-12.3 6.79-18.4 2.22-6.1 4.49-12.24 6.79-18.41h4.94l-13.53 36.81h-5zM198.54 552.17h4.7c1.22 0 2.22-.2 3.02-.62a5.68 5.68 0 0 0 2.93-3.53c.2-.69.29-1.3.29-1.85a7.4 7.4 0 0 0-.26-1.8 5.39 5.39 0 0 0-2.86-3.48 6.64 6.64 0 0 0-3.07-.62h-4.75v11.9zm-5.86 17.57v-34.99h9.89c1.92 0 3.67.26 5.25.77a11.4 11.4 0 0 1 4.04 2.2 9.76 9.76 0 0 1 2.56 3.56c.61 1.4.92 2.99.92 4.75 0 1.4-.21 2.8-.63 4.2-.41 1.4-1.1 2.64-2.04 3.74s-2.17 2-3.67 2.7c-1.5.68-3.36 1.02-5.57 1.02h-4.9v12.05h-5.85zM220.67 534.75h5.9v34.99h-5.9zM234.63 533.21l1.06 1.52a502.5 502.5 0 0 0 4.78 6.65 3597.03 3597.03 0 0 1 11.87 16.31l.87-1.22 1.94-2.71 2.67-3.72c.99-1.4 2.01-2.81 3.07-4.25 1.05-1.44 2.09-2.86 3.1-4.27 1-1.41 1.93-2.69 2.78-3.84a353.25 353.25 0 0 0 3.24-4.47v36.53h-6.29V551.9c0-.26.03-.53.1-.82.06-.29.1-.46.1-.53l-11.58 16.66a787.2 787.2 0 0 0-3.4-4.66c-.87-1.18-1.78-2.45-2.74-3.81a351.38 351.38 0 0 0-4.87-6.77c-.6-.82-.92-1.29-.99-1.42 0 .07.04.24.1.53.06.29.1.56.1.82v17.85h-5.9v-36.53z" fill-rule="nonzero"/>
    </g>
    <g>
        <path d="M613.72 390.36a2188.61 2188.61 0 0 1-7.32 19.08l-3.55 9.2a568.46 568.46 0 0 0-3.05 8.06l-7.87-19.49a8.2 8.2 0 0 1-.24-.58c-.03-.1-.08-.28-.14-.57-.04.13-.06.25-.08.38-.01.13-.04.24-.07.34-.03.13-.08.25-.14.38a619.95 619.95 0 0 0-4.73 10.59 2838.3 2838.3 0 0 0-4.06 9.04c-2.3-6.1-4.62-12.18-6.96-18.21-2.33-6.03-4.65-12.1-6.96-18.22h6.68a854.1 854.1 0 0 0 4.15 11.47c1.33 3.59 2.36 6.77 3.1 9.56l.19.86c.06.32.12.6.19.86 0-.19.07-.47.21-.84.15-.36.25-.64.32-.84.03-.16.14-.45.33-.88l.67-1.52.87-1.9.96-2.08c.77-1.63 1.6-3.42 2.5-5.38-.45-1.34-.87-2.62-1.25-3.84a175.41 175.41 0 0 1-1.78-5.47h5.66c1.38 3.55 2.63 6.8 3.75 9.75l1.44 3.72a205.86 205.86 0 0 1 2.28 6.07l.55 1.49c.13.28.2.56.24.84.03.27.08.55.14.84.07-.3.12-.58.17-.87a44.45 44.45 0 0 1 1.49-5.45c.56-1.64 1.18-3.36 1.85-5.16.67-1.79 1.38-3.63 2.13-5.52.76-1.88 1.48-3.79 2.19-5.7h6.14zM630.09 422.81c-1 .9-2.2 1.6-3.6 2.11-1.4.51-2.85.77-4.32.77a10.82 10.82 0 0 1-10.03-6.55 10.1 10.1 0 0 1-.87-4.15c0-1.48.3-2.86.87-4.16a10.87 10.87 0 0 1 5.74-5.71c1.29-.56 2.66-.84 4.1-.84 2.3 0 4.33.7 6.07 2.09a11.3 11.3 0 0 1 3.72 5.5c-.96.35-2.07.77-3.34 1.27a1672.44 1672.44 0 0 0-11.88 4.73c.55.99 1.3 1.79 2.26 2.4.96.6 2.05.9 3.26.9.84 0 1.68-.14 2.52-.45a5.9 5.9 0 0 0 2.1-1.22l3.4 3.31zm-4.03-12a3.5 3.5 0 0 0-1.73-1.56 5.6 5.6 0 0 0-4.7 0 6.14 6.14 0 0 0-3.27 3.26 5.44 5.44 0 0 0-.48 2.24v.19a919.09 919.09 0 0 0 5.3-2.16 192.81 192.81 0 0 1 4.88-1.97zM657.16 415.03c0 1.54-.25 2.96-.77 4.25a9.83 9.83 0 0 1-5.57 5.62c-1.3.53-2.75.79-4.31.79-1.57 0-2.96-.3-4.16-.89a6.2 6.2 0 0 1-2.47-1.9c0 .13.01.25.03.37l.02.4v1.5h-4.6v-37.5h4.6v19.68c.26-.32.58-.66.98-1.03s.9-.7 1.47-1c.57-.31 1.22-.57 1.94-.77.72-.21 1.51-.32 2.38-.32 1.57 0 2.99.25 4.27.75a9.06 9.06 0 0 1 3.29 2.16c.91.94 1.62 2.08 2.13 3.4.52 1.33.77 2.83.77 4.5zm-4.99-.1c0-1.78-.52-3.26-1.56-4.43a5.52 5.52 0 0 0-4.34-1.75c-.93 0-1.78.15-2.55.45a5.8 5.8 0 0 0-3.31 3.27 6.42 6.42 0 0 0 1.32 6.91c.56.56 1.22 1 2 1.32.76.32 1.6.48 2.54.48a6.2 6.2 0 0 0 2.5-.48 5.06 5.06 0 0 0 1.84-1.35c.5-.57.88-1.24 1.15-1.99.27-.75.41-1.56.41-2.42zM673.24 406.59a25.21 25.21 0 0 1-1.49 2.01c-.25.32-.47.6-.64.84l-.27.36-.24-.17c-.16-.1-.39-.23-.7-.36-.3-.12-.65-.24-1.05-.36-.4-.1-.8-.16-1.22-.16-.45 0-.92.1-1.42.3-.5.22-.74.64-.74 1.28 0 .54.21 1 .64 1.37.44.37.96.7 1.59 1 .62.31 1.31.62 2.06.94.75.32 1.44.72 2.07 1.2a6.39 6.39 0 0 1 1.58 1.8c.43.72.65 1.61.65 2.67 0 .92-.17 1.77-.5 2.54a5.5 5.5 0 0 1-1.45 1.97c-.62.54-1.36.97-2.23 1.3-.86.31-1.84.47-2.93.47-1.3 0-2.58-.22-3.81-.67a6.7 6.7 0 0 1-2.9-1.92 53.77 53.77 0 0 0 1.72-2.06 41.85 41.85 0 0 1 1.06-1.25c0-.03.1.02.31.17a9.6 9.6 0 0 0 2.09 1.03c.48.16.97.24 1.49.24.8 0 1.41-.18 1.84-.53.44-.35.65-.78.65-1.3 0-.5-.21-.92-.65-1.24a8.1 8.1 0 0 0-1.58-.89l-2.06-.89a9.41 9.41 0 0 1-2.07-1.2 5.67 5.67 0 0 1-2.23-4.7 6 6 0 0 1 .62-2.88c.42-.77.96-1.4 1.61-1.87a6.44 6.44 0 0 1 2.14-1.04 8.6 8.6 0 0 1 2.25-.3c1 0 2.03.2 3.1.6 1.07.4 1.98.96 2.71 1.7zM678.43 387.67h4.6v22.04a9.75 9.75 0 0 1 2.98-3.94c1.28-1 2.93-1.5 4.94-1.54 2.12 0 3.8.56 5.04 1.68a6 6 0 0 1 1.97 4.47v14.78h-4.56v-12.62c-.06-1-.41-1.85-1.05-2.57-.64-.72-1.64-1.11-2.98-1.18a6.45 6.45 0 0 0-4.58 1.88c-.56.57-1 1.26-1.3 2.06-.3.8-.46 1.66-.46 2.6v9.83h-4.6v-37.49zM702.19 414.94a10.35 10.35 0 0 1 3.16-7.54 11.22 11.22 0 0 1 7.73-3.12 10.77 10.77 0 0 1 7.66 3.12 10.65 10.65 0 0 1 3.05 7.54c0 1.47-.27 2.86-.8 4.17a10.35 10.35 0 0 1-5.64 5.74 10.9 10.9 0 0 1-4.32.84c-1.5 0-2.9-.26-4.22-.77a10.23 10.23 0 0 1-5.76-5.59c-.58-1.33-.86-2.8-.86-4.4zm4.56.05a6.13 6.13 0 0 0 6.19 6.19 6.13 6.13 0 0 0 4.39-1.8c.56-.56 1-1.22 1.34-1.97.34-.75.5-1.56.5-2.42 0-.87-.16-1.68-.5-2.43a6.51 6.51 0 0 0-3.3-3.31 5.87 5.87 0 0 0-2.43-.5c-.87 0-1.67.16-2.43.5a6.17 6.17 0 0 0-3.77 5.74zM745 414.94c0-1.8-.52-3.27-1.56-4.44a5.52 5.52 0 0 0-4.34-1.75c-.93 0-1.78.15-2.55.45a5.8 5.8 0 0 0-3.3 3.27 6.42 6.42 0 0 0 1.32 6.91c.55.56 1.22 1 1.98 1.32.77.32 1.62.48 2.55.48a6.2 6.2 0 0 0 2.5-.48 5.06 5.06 0 0 0 1.84-1.35c.5-.57.88-1.24 1.15-1.99.28-.75.41-1.56.41-2.42zm5 .1c0 1.53-.26 2.95-.77 4.24a9.83 9.83 0 0 1-5.57 5.62c-1.31.53-2.75.79-4.32.79-1.57 0-2.95-.3-4.15-.89a6.2 6.2 0 0 1-2.48-1.9c0 .13.01.25.03.37l.02.4v11.28h-4.6v-30.19h4.41c0 .45.03.9.1 1.35.06.44.1.86.1 1.24.25-.32.58-.66.98-1.03s.88-.7 1.46-1c.58-.31 1.22-.57 1.94-.77.72-.21 1.52-.32 2.38-.32 1.57 0 3 .25 4.27.75a9.06 9.06 0 0 1 3.29 2.16c.91.94 1.62 2.08 2.14 3.4.5 1.33.76 2.83.76 4.5z" fill-rule="nonzero"/>
    </g>
    <g>
        <path d="M1038.73 525.83h9.07c3.52 0 6.5.54 8.95 1.61a17.26 17.26 0 0 1 5.98 4.15 15.56 15.56 0 0 1 3.33 5.79 21.17 21.17 0 0 1 1.04 6.45c0 2.63-.48 4.99-1.42 7.08a16.23 16.23 0 0 1-9.4 8.74 19.35 19.35 0 0 1-6.75 1.18h-10.8v-35zm9.89 29.43c1.82 0 3.5-.26 5.04-.77a11.14 11.14 0 0 0 3.98-2.28c1.12-1 2-2.24 2.62-3.7.62-1.45.93-3.14.93-5.06 0-2.18-.37-4.02-1.13-5.54a10.99 10.99 0 0 0-2.85-3.7 11.18 11.18 0 0 0-3.84-2.06c-1.41-.44-2.75-.65-4.03-.65h-4.7v23.76h3.98zM1113.18 526.03a2188.61 2188.61 0 0 1-7.32 19.08l-3.56 9.19a568.46 568.46 0 0 0-3.04 8.06l-7.88-19.49a8.2 8.2 0 0 1-.24-.57l-.14-.58c-.03.13-.06.26-.07.39-.02.12-.04.24-.07.33-.04.13-.08.26-.15.39a619.95 619.95 0 0 0-4.73 10.58 2838.3 2838.3 0 0 0-4.05 9.05c-2.3-6.11-4.63-12.19-6.96-18.22-2.34-6.03-4.66-12.1-6.96-18.21h6.67a854.1 854.1 0 0 0 4.15 11.47c1.33 3.58 2.36 6.77 3.1 9.55.06.26.13.54.19.86.06.32.13.61.2.87 0-.2.06-.47.2-.84.15-.37.26-.65.32-.84.03-.16.14-.46.34-.89l.67-1.51c.25-.58.54-1.21.86-1.9l.96-2.09c.77-1.63 1.6-3.42 2.5-5.37-.45-1.35-.87-2.63-1.25-3.84a175.41 175.41 0 0 1-1.78-5.47h5.67l3.74 9.74 1.44 3.72a205.86 205.86 0 0 1 2.28 6.07l.55 1.49c.13.29.21.57.24.84.04.27.08.55.15.84l.17-.86c.04-.3.1-.56.16-.82.32-1.44.76-2.98 1.32-4.63s1.18-3.37 1.85-5.16c.67-1.8 1.39-3.63 2.14-5.52.75-1.89 1.48-3.8 2.18-5.71h6.15zM1117.5 560.83v-35h5.9v14.6h16.7v-14.6h5.96v9.58l-.03 7.92-.02 7.92v9.58h-5.9v-14.79h-16.71v14.79h-5.9zM1162.42 561.74c2.3-6.18 4.57-12.31 6.8-18.41 2.22-6.1 4.48-12.23 6.79-18.4h4.94l-13.53 36.8h-5zM1203.22 531.16v9.5h4.42c1.63 0 2.84-.47 3.62-1.43a5.29 5.29 0 0 0 1.18-3.46c0-1.57-.48-2.73-1.44-3.48a6.14 6.14 0 0 0-3.89-1.13h-3.89zm0 14.5v9.84h4.61c.87 0 1.68-.1 2.45-.31.77-.21 1.44-.52 2.02-.92.57-.4 1.02-.9 1.34-1.53.32-.63.48-1.35.48-2.19 0-.92-.2-1.7-.58-2.32a4.48 4.48 0 0 0-1.53-1.52 6.72 6.72 0 0 0-2.19-.81c-.81-.16-1.65-.24-2.52-.24h-4.08zm-5.85 15.17v-35h9.55c1.73 0 3.3.17 4.7.5 1.41.34 2.61.87 3.6 1.6 1 .71 1.76 1.66 2.28 2.82.53 1.17.8 2.57.8 4.2 0 .9-.1 1.77-.27 2.62a8.27 8.27 0 0 1-.86 2.35 6.57 6.57 0 0 1-3.96 3.14c.8.17 1.6.44 2.42.82a7.48 7.48 0 0 1 3.75 4.01c.4.98.6 2.12.6 3.43 0 1.7-.33 3.15-.99 4.35a8.72 8.72 0 0 1-2.59 2.95 10.82 10.82 0 0 1-3.72 1.68c-1.4.35-2.86.53-4.37.53h-10.94zM1225.93 525.83h5.9v35h-5.9z" fill-rule="nonzero"/>
    </g>
    <g>
        <path d="M628.83 579.17a3.27 3.27 0 1 0-4.63 4.63l32.7 32.7c.6.62 1.43.96 2.3.96l.07-.01.07.01c1.1 0 2.01-.57 2.6-1.38l32.41-32.41a3.27 3.27 0 1 0-4.63-4.63l-27.1 27.1V489.68a3.27 3.27 0 1 0-6.55 0v116.73l-27.24-27.24z" fill-rule="nonzero"/>
    </g>
    <g>
        <path d="M1131.27 640a4 4 0 0 0-4 4 44.13 44.13 0 0 1-44.08 44.08h-47.79l34.12-24.8a4 4 0 1 0-4.71-6.48l-48.54 35.3 48.53 35.29a4 4 0 0 0 5.6-.89 4 4 0 0 0-.88-5.59l-34.12-24.81h47.79a52.15 52.15 0 0 0 52.1-52.1 4 4 0 0 0-4.02-4z" fill-rule="nonzero"/>
    </g>
    <g>
        <path d="M170.29 640a4 4 0 0 1 4 4 44.13 44.13 0 0 0 44.08 44.08h47.79l-34.11-24.8a4 4 0 1 1 4.7-6.48l48.54 35.3-48.53 35.29a4 4 0 0 1-5.6-.89 4 4 0 0 1 .89-5.59l34.1-24.81h-47.78a52.15 52.15 0 0 1-52.09-52.1 4 4 0 0 1 4-4z" fill-rule="nonzero"/>
    </g>
</svg>
