<svg viewBox="0 0 1280 1280" xmlns="http://www.w3.org/2000/svg" fill-rule="evenodd" clip-rule="evenodd" stroke-linejoin="round" stroke-miterlimit="1.41">
    <path d="M70.92 249.8c-12.14 0-22.01 9.87-22.01 22 0 12.14 9.87 22.01 22 22.01 12.14 0 22.01-9.87 22.01-22 0-12.14-9.87-22.01-22-22.01zm0 34.23a12.24 12.24 0 0 1-12.23-12.23 12.24 12.24 0 0 1 24.45 0c0 6.75-5.49 12.23-12.22 12.23z" fill-rule="nonzero"/>
    <circle cx="264.09" cy="264.47" r="4.89"/>
    <circle cx="244.53" cy="264.47" r="4.89"/>
    <circle cx="273.88" cy="279.14" r="4.89"/>
    <circle cx="254.31" cy="279.14" r="4.89"/>
    <circle cx="224.97" cy="264.47" r="4.89"/>
    <circle cx="234.75" cy="279.14" r="4.89"/>
    <circle cx="205.41" cy="264.47" r="4.89"/>
    <circle cx="215.19" cy="279.14" r="4.89"/>
    <circle cx="185.84" cy="264.47" r="4.89"/>
    <circle cx="195.63" cy="279.14" r="4.89"/>
    <path d="M70.92 342.72c-12.14 0-22.01 9.87-22.01 22 0 12.14 9.87 22.01 22 22.01 12.14 0 22.01-9.87 22.01-22 0-12.14-9.87-22.01-22-22.01zm0 34.23a12.24 12.24 0 0 1-12.23-12.22c0-6.75 5.49-12.23 12.23-12.23a12.24 12.24 0 0 1 0 24.45zM70.92 435.64c-12.14 0-22.01 9.87-22.01 22 0 12.14 9.87 22.01 22 22.01 12.14 0 22.01-9.87 22.01-22 0-12.14-9.87-22.01-22-22.01zm0 34.23a12.24 12.24 0 0 1-12.23-12.22 12.24 12.24 0 0 1 24.45 0c0 6.74-5.49 12.22-12.22 12.22z" fill-rule="nonzero"/>
    <path d="M313 300.62v-57.63a22.56 22.56 0 0 0-22.54-22.54H42.1A22.56 22.56 0 0 0 19.56 243v57.62a22.4 22.4 0 0 0 8.7 17.65 22.43 22.43 0 0 0-8.7 17.65v57.62a22.4 22.4 0 0 0 8.7 17.65 22.43 22.43 0 0 0-8.7 17.65v57.63a22.56 22.56 0 0 0 22.54 22.53h136.32a233.73 233.73 0 0 0 41.66 3.67c42.41 0 87.13-11 92.4-32.05.33-.65.52-1.4.52-2.18V342.72a4.8 4.8 0 0 0-.47-2.04c-1.7-7.16-8.06-13.19-17.42-18.02A22.57 22.57 0 0 0 313 300.62zM29.35 393.54v-57.63c0-7.03 5.72-12.76 12.75-12.76h102.02c-8.85 4.75-14.85 10.61-16.5 17.53-.28.63-.46 1.3-.46 2.04v63.57H42.1a12.77 12.77 0 0 1-12.75-12.75zM140 363.53l.68.42c.86.54 1.75 1.07 2.69 1.59l.8.44a68.9 68.9 0 0 0 3.55 1.78l.6.27c1.08.49 2.2.96 3.34 1.43l1 .4a104.74 104.74 0 0 0 9.72 3.3c1.41.41 2.84.81 4.3 1.2.12.02.23.06.35.09 1.58.4 3.18.78 4.82 1.15l1.24.27c1.4.3 2.8.59 4.24.86l.85.17c1.67.31 3.37.6 5.09.87l1.22.2c1.43.21 2.86.42 4.3.61l1.2.16c1.75.22 3.5.42 5.28.6a285.27 285.27 0 0 0 5.57.5l1.36.12c1.8.13 3.6.25 5.4.34l.78.04c1.59.07 3.18.13 4.78.18l1.44.04a255.94 255.94 0 0 0 10.94 0l1.44-.04c1.6-.05 3.18-.1 4.78-.18l.77-.04a241.02 241.02 0 0 0 11.26-.85l1.07-.1a227.53 227.53 0 0 0 10.78-1.39l1.23-.19c1.72-.27 3.41-.56 5.1-.87l.84-.17c1.44-.27 2.85-.56 4.24-.86l1.24-.27c1.63-.37 3.24-.75 4.82-1.15l.35-.1a127.48 127.48 0 0 0 5.45-1.53c1.42-.43 2.82-.88 4.18-1.34l.23-.08a110.54 110.54 0 0 0 8.5-3.37l.6-.27a70.56 70.56 0 0 0 3.55-1.78l.8-.44c.93-.52 1.82-1.05 2.69-1.59l.68-.42a45.75 45.75 0 0 0 2.88-2.03l.18-.12v24.39c-.11.57-.2 1.14-.1 1.73.07.35.12.7.12 1.07 0 .54-.15 1.08-.28 1.63a8.53 8.53 0 0 1-.98 2.37 12.42 12.42 0 0 1-2 2.63c-.17.2-.35.39-.55.59-10.35 10.01-40.9 19.06-79.33 19.06-38.4 0-68.93-9.04-79.3-19.05-.22-.21-.41-.43-.6-.64a12.15 12.15 0 0 1-2.52-3.68c-.2-.44-.33-.88-.44-1.32-.13-.53-.28-1.06-.28-1.6 0-.34.04-.69.1-1.03.1-.64.04-1.27-.1-1.88v-24.28c.06.04.13.08.18.13.9.7 1.87 1.37 2.88 2.03zm162.52 71.95a12.72 12.72 0 0 1-2.56 3.74c-.18.19-.36.39-.56.58-10.35 10.02-40.9 19.06-79.32 19.06-38.4 0-68.94-9.03-79.3-19.05a16.4 16.4 0 0 1-1.84-2.1 12.02 12.02 0 0 1-1.3-2.21 8.37 8.37 0 0 1-.42-1.33c-.12-.46-.23-.92-.25-1.38v-.59c.02-.22.03-.44.07-.66.06-.42-.03-.83-.07-1.25l-.03-24v-.9l.63.44a50.09 50.09 0 0 0 3.58 2.41c.88.54 1.76 1.07 2.7 1.59l.02.01c10.2 5.56 24.23 9.58 39.74 12l.35.06c5 .78 10.14 1.38 15.36 1.83a177.26 177.26 0 0 0 6.61.47c1.48.09 2.96.16 4.44.22l2.58.1a246.3 246.3 0 0 0 14.25 0c.87-.02 1.73-.06 2.6-.1a266.7 266.7 0 0 0 7.7-.42c1.1-.07 2.19-.17 3.28-.26 5.28-.45 10.46-1.06 15.5-1.84l.23-.04c16.95-2.65 32.1-7.2 42.46-13.59a53.3 53.3 0 0 0 3.57-2.4c.22-.16.47-.31.68-.48v24.4c-.11.56-.2 1.14-.1 1.72.05.36.1.71.1 1.07 0 .54-.15 1.09-.29 1.63-.1.42-.23.85-.41 1.27zM42.1 499.22a12.77 12.77 0 0 1-12.76-12.76v-57.63c0-7.03 5.73-12.75 12.76-12.75h85.06v67.24h1.44c.08.18.2.36.28.54a20.27 20.27 0 0 0 1.92 3.23 25.05 25.05 0 0 0 2.6 3.09 38.9 38.9 0 0 0 6.99 5.6c1.87 1.22 3.9 2.36 6.1 3.44H42.09zm261.12-22.04a5 5 0 0 0-.1.46c-2 12.2-35.85 25.25-83.04 25.25a221.1 221.1 0 0 1-40.48-3.55v-.03c-24.31-4.6-37.77-12.38-41.54-18.93v-.02c-.18-.3-.3-.6-.43-.9a8.3 8.3 0 0 1-.6-1.82l-.03-28.2c.17.14.38.27.56.4a49.01 49.01 0 0 0 3.59 2.42c.87.54 1.75 1.07 2.7 1.59l.02.01c10.2 5.56 24.23 9.58 39.73 12l.36.06c5 .78 10.13 1.38 15.36 1.83a177.26 177.26 0 0 0 6.61.48c1.48.08 2.95.15 4.43.21l2.59.1a248.56 248.56 0 0 0 14.25 0c.86-.02 1.73-.06 2.6-.1a266.71 266.71 0 0 0 7.7-.42c1.1-.07 2.18-.17 3.28-.26a224.4 224.4 0 0 0 15.5-1.84l.23-.04c16.95-2.65 32.1-7.2 42.45-13.59a53.3 53.3 0 0 0 3.57-2.4c.22-.16.47-.31.69-.48v27.77zm0-132.63c0 12.4-35.56 26.29-83.14 26.29-47.59 0-83.14-13.88-83.14-26.29 0-.63.15-1.26.33-1.9a9 9 0 0 1 .9-2.03c1.62-2.72 4.9-5.64 9.96-8.46l.65-.35a60.23 60.23 0 0 1 6.25-2.95l.74-.3a126.9 126.9 0 0 1 20.23-5.91c2.41-.51 4.87-1 7.4-1.41l2-.34a238.73 238.73 0 0 1 69.33 0c.7.1 1.36.23 2.04.34 2.5.42 4.95.9 7.34 1.4 23.84 5.08 39.1 13.8 39.1 21.91zm0-43.93c0 7.03-5.72 12.75-12.76 12.75h-22.64l-.88-.16c-3.2-.7-6.5-1.32-9.88-1.86l-.99-.15a237.23 237.23 0 0 0-36-2.72c-12.11 0-24.43.93-35.98 2.72l-1 .15c-3.37.54-6.66 1.16-9.86 1.85-.29.07-.61.1-.9.17H42.1a12.76 12.76 0 0 1-12.75-12.75v-57.63c0-7.03 5.72-12.76 12.75-12.76h248.36c7.04 0 12.76 5.73 12.76 12.76v57.63z" fill-rule="nonzero"/>
    <g>
        <circle cx="1029.02" cy="374.53" r="5.31"/>
        <circle cx="1029.02" cy="406.4" r="5.31"/>
        <circle cx="1044.96" cy="390.46" r="5.31"/>
        <circle cx="1076.84" cy="390.46" r="5.31"/>
        <circle cx="1060.9" cy="406.4" r="5.31"/>
        <circle cx="1092.78" cy="406.4" r="5.31"/>
        <circle cx="1108.72" cy="390.46" r="5.31"/>
        <circle cx="1140.6" cy="390.46" r="5.31"/>
        <circle cx="1124.66" cy="406.4" r="5.31"/>
        <circle cx="1156.53" cy="406.4" r="5.31"/>
        <circle cx="1172.47" cy="390.46" r="5.31"/>
        <circle cx="1204.35" cy="390.46" r="5.31"/>
        <circle cx="1188.41" cy="406.4" r="5.31"/>
        <circle cx="1220.29" cy="406.4" r="5.31"/>
        <circle cx="1236.23" cy="390.46" r="5.31"/>
        <circle cx="1252.16" cy="374.53" r="5.31"/>
        <circle cx="1076.84" cy="422.34" r="5.31"/>
        <circle cx="1108.72" cy="422.34" r="5.31"/>
        <circle cx="1140.6" cy="422.34" r="5.31"/>
        <circle cx="1172.47" cy="422.34" r="5.31"/>
        <circle cx="1204.35" cy="422.34" r="5.31"/>
        <path d="M1267.73 266.42l-.15-.38c-.06-.12-.08-.24-.14-.34-6.48-25.91-62.52-45.25-132.16-45.25-69.64 0-125.68 19.34-132.16 45.25-.06.1-.08.23-.14.34l-.15.38a5.23 5.23 0 0 0-.37 1.85v196.57a5 5 0 0 0 .62 2.4c6.27 26 62.41 45.42 132.2 45.42 69.63 0 125.68-19.33 132.16-45.24.42-.76.66-1.64.66-2.58V268.27a5.2 5.2 0 0 0-.37-1.85zm-28.15 151.9a5.2 5.2 0 0 0-3.36-1.3 5.31 5.31 0 0 0-5.31 5.32c0 .06.03.1.03.17-10.65 4.5-24.26 8.35-40.08 11.14a5.14 5.14 0 0 0-2.45-.68c-1.57 0-2.93.7-3.9 1.77a304.53 304.53 0 0 1-22.86 2.56 5.24 5.24 0 0 0-5.12-4.33 5.27 5.27 0 0 0-5.23 4.92c-5.23.23-10.53.39-16.02.39-1.81 0-3.55-.07-5.34-.1a5.27 5.27 0 1 0-10.52-.29c-7.54-.33-14.82-.86-21.74-1.63a5.22 5.22 0 1 0-9.04-1.17c-15.26-2.18-28.69-5.34-39.83-9.14a5.27 5.27 0 0 0-3.85-8.92 5.31 5.31 0 0 0-5.31 5.31c0 .07.03.12.03.2-16.93-7.15-26.6-15.83-26.6-24.1 0-.6.07-1.2.17-1.8.04-.3-.05-.6-.05-.89a5.3 5.3 0 0 0-.12-10.6V363.9c2.8 0 5.03-2.18 5.23-4.93 9.18 6.5 21.95 12.09 37.44 16.41a5.25 5.25 0 0 0 5.15 4.46c1.7 0 3.14-.85 4.11-2.09 20.31 4.7 44.34 7.4 70.27 7.4 30.14 0 57.71-3.64 79.85-9.85a5.25 5.25 0 1 0 9.9-3.06c13.92-4.78 24.99-10.7 32.44-17.42v39.45a5.3 5.3 0 0 0-.16 2.37c.1.6.16 1.2.16 1.8 0 1.58-.47 3.18-1.17 4.77a5.2 5.2 0 0 0-4.14-2.12 5.32 5.32 0 0 0-2.14 10.15 56.86 56.86 0 0 1-10.44 7.08zm17.9-82.33c-.04.17-.14.31-.17.48-3.01 18.38-52.77 38.06-122.03 38.06-69.26 0-119.01-19.68-122.02-38.06-.03-.17-.13-.3-.17-.48v-45.05c18.23 16.8 59.73 30.46 122.2 30.46 62.45 0 103.96-13.65 122.19-30.46V336zm-122.2-104.91c69.27 0 119.02 19.67 122.03 38.04v.03c.1.6.17 1.18.17 1.77 0 18.85-50.18 39.85-122.2 39.85-72.02 0-122.2-21-122.2-39.85 0-.6.07-1.18.17-1.77v-.03c3.01-18.37 52.76-38.04 122.03-38.04zm122.03 232.9c-3.01 18.38-52.77 38.05-122.03 38.05-69.26 0-119.01-19.67-122.02-38.05a5.7 5.7 0 0 0-.17-.7v-44.83c18.23 16.8 59.73 30.46 122.2 30.46 62.45 0 103.96-13.65 122.19-30.46v44.82c-.07.23-.13.47-.17.71z" fill-rule="nonzero"/>
    </g>
    <g>
        <path d="M856.8 623.72a73.04 73.04 0 0 0-72.96 72.96c0 12.59 3.2 24.43 8.83 34.78l-79.4 76.6a96.59 96.59 0 0 0-119.11-.01l-36.35-36.36a48 48 0 0 0 6.89-24.55 48.7 48.7 0 0 0-48.64-48.64 48.7 48.7 0 0 0-48.65 48.64 48.7 48.7 0 0 0 48.65 48.64 48 48 0 0 0 24.55-6.9l36.35 36.36a96.65 96.65 0 0 0 0 119.11l-64.99 55.45a72.6 72.6 0 0 0-48.93-19 73.04 73.04 0 0 0-72.96 72.97 73.04 73.04 0 0 0 72.96 72.96 73.04 73.04 0 0 0 72.96-72.96c0-12.59-3.2-24.43-8.82-34.78l67-57.44a96.71 96.71 0 0 0 47.4 19.69v80.8c-34.46 5.82-60.81 35.78-60.81 71.88a73.04 73.04 0 0 0 72.96 72.96 73.04 73.04 0 0 0 72.97-72.96c0-36.08-26.35-66.05-60.8-71.87v-80.81a96.71 96.71 0 0 0 47.4-19.7l93.26 93.27a47.98 47.98 0 0 0-6.91 24.56 48.7 48.7 0 0 0 48.64 48.65 48.7 48.7 0 0 0 48.64-48.65 48.7 48.7 0 0 0-48.64-48.64 48 48 0 0 0-24.55 6.9l-93.26-93.26a96.65 96.65 0 0 0 0-119.11l77.4-74.61a72.56 72.56 0 0 0 48.93 19 73.04 73.04 0 0 0 72.96-72.97 73.04 73.04 0 0 0-72.96-72.96zM491.75 747.14a24.35 24.35 0 0 1 24.32-24.32 24.35 24.35 0 0 1 24.32 24.32 24.35 24.35 0 0 1-24.32 24.32 24.35 24.35 0 0 1-24.32-24.32zm-28.7 355.27a48.7 48.7 0 0 1-48.64-48.64 48.7 48.7 0 0 1 48.64-48.64 48.7 48.7 0 0 1 48.64 48.64 48.7 48.7 0 0 1-48.64 48.64zm239.32 31.51a48.7 48.7 0 0 1-48.64 48.64 48.7 48.7 0 0 1-48.64-48.64 48.7 48.7 0 0 1 48.64-48.64 48.7 48.7 0 0 1 48.64 48.64zm-48.64-176.15a73.04 73.04 0 0 1-72.96-72.97 73.04 73.04 0 0 1 72.96-72.96 73.04 73.04 0 0 1 72.97 72.96 73.04 73.04 0 0 1-72.97 72.97zm218.9 121.6a24.35 24.35 0 0 1-24.33 24.32 24.35 24.35 0 0 1-24.32-24.32 24.35 24.35 0 0 1 24.32-24.32 24.35 24.35 0 0 1 24.32 24.32zM856.8 745.32a48.7 48.7 0 0 1-48.65-48.64 48.7 48.7 0 0 1 48.65-48.64 48.7 48.7 0 0 1 48.64 48.64 48.7 48.7 0 0 1-48.64 48.64z" fill-rule="nonzero"/>
        <path d="M642.57 946.78h-4v-26.16h3.83c0 .39.03.78.09 1.17.05.38.08.74.08 1.08.22-.28.5-.58.85-.9.35-.32.77-.6 1.27-.87a7.4 7.4 0 0 1 3.74-.94c1.36 0 2.6.22 3.7.65a7.85 7.85 0 0 1 2.85 1.87c.8.82 1.4 1.8 1.85 2.95.45 1.15.67 2.45.67 3.89 0 1.33-.22 2.56-.67 3.68a8.66 8.66 0 0 1-4.82 4.86 9.95 9.95 0 0 1-3.74.7 8.02 8.02 0 0 1-3.6-.78 5.37 5.37 0 0 1-2.14-1.64c0 .11 0 .21.02.31l.02.35v9.78zm32.23-24.58a23.07 23.07 0 0 1-1.29 1.75 22.5 22.5 0 0 0-.79 1.04l-.2-.15a3.4 3.4 0 0 0-.6-.31 7.76 7.76 0 0 0-.92-.31 3.18 3.18 0 0 0-2.29.13c-.43.17-.64.54-.64 1.1 0 .47.18.86.56 1.18.37.32.83.61 1.37.87.54.27 1.14.54 1.79.81.65.28 1.25.63 1.79 1.04.54.42 1 .94 1.37 1.56a5.44 5.44 0 0 1 .13 4.51c-.3.67-.71 1.24-1.25 1.7-.55.48-1.2.85-1.94 1.13-.75.28-1.6.42-2.53.42a9.6 9.6 0 0 1-3.31-.58 5.81 5.81 0 0 1-2.52-1.67 45.14 45.14 0 0 0 1.5-1.79c.25-.3.46-.56.65-.76l.27-.32c0-.02.09.02.27.15a8.16 8.16 0 0 0 1.8.9c.42.13.85.2 1.3.2.69 0 1.22-.15 1.6-.46.37-.3.56-.68.56-1.12 0-.44-.2-.8-.57-1.08a7 7 0 0 0-1.37-.77c-.54-.23-1.13-.5-1.79-.77a8.11 8.11 0 0 1-1.78-1.04 4.92 4.92 0 0 1-1.93-4.08c0-1 .17-1.82.53-2.49a4.8 4.8 0 0 1 1.4-1.62 5.57 5.57 0 0 1 1.85-.9 7.46 7.46 0 0 1 1.95-.26 7.66 7.66 0 0 1 5.03 2zm-21.63 7.24c0-1.56-.45-2.84-1.35-3.85a4.78 4.78 0 0 0-3.76-1.52c-.8 0-1.54.13-2.2.4a5.01 5.01 0 0 0-2.87 2.82 5.55 5.55 0 0 0 1.14 5.99 5.3 5.3 0 0 0 3.93 1.56c.8 0 1.52-.14 2.16-.41a4.4 4.4 0 0 0 1.6-1.17c.43-.5.76-1.07 1-1.72.23-.65.35-1.35.35-2.1zm-60.7-4.48a72.97 72.97 0 0 1-11.92-40.07 73.38 73.38 0 0 1 73.35-73.35 73.38 73.38 0 0 1 73.35 73.35 72.97 72.97 0 0 1-11.92 40.08 163.04 163.04 0 0 0-61.43-11.94c-21.72 0-42.46 4.24-61.43 11.94zm124.57-47.63c3.41-17.37-1.08-22.12-1.28-22.31a.79.79 0 0 0-.12-.1l-11.1-7.3-1.08-4.27a.8.8 0 0 0-.52-.56l-12.75-4.33a.8.8 0 0 0-.76.12l-3.45 2.73-13.24-.96a.8.8 0 0 0-.17 0c-.27.04-6.73 1.06-14.6 16.92a.8.8 0 0 0-.07.48l.13.76-.7 2.04a.8.8 0 0 0 .45 1l8.7 3.66.05.02c.31.11.67.01.88-.25l1.06-1.29-11.89 35a.8.8 0 0 0 .37.95 101.2 101.2 0 0 0 35.1 11.92.8.8 0 0 0 .87-.54l11.89-34.98.05 1.66a.8.8 0 0 0 .6.75l9.12 2.39c.41.1.83-.12.97-.52l.69-2.04.56-.52a.8.8 0 0 0 .24-.43zm-68.65 9.65c-3.05-1.9-5.53-1.8-10.45-1.13-4.85.66-15.5-2.12-18.52-4.38-2.46-1.84-8.26-8.98-10.63-11.97-.8-1-2.02-1.51-3.28-1.4l-1.14-1.38a2.57 2.57 0 0 0-3.87-.1l-1.94 2.12c-2.84-.08-4.7-.65-5.73-1.1a2.61 2.61 0 0 0-3.67 2.48c.21 4.58.37 12.93-.92 17.5a27.65 27.65 0 0 0-.62 12.83l.05.24c.04.28.27.5.55.54 6.24 1 15.7 1.91 28.34 1.54 4.24-.12 8.85-.39 13.8-.85l.17-.01c7.42-.69 13.59-2.66 18.33-5.87.8-.54 1.33-1.4 1.47-2.37.27-1.87.36-5.24-1.95-6.69zm-49.72-.93a5.32 5.32 0 1 0-.32-10.64 5.32 5.32 0 0 0 .32 10.64zm35.53-61.98l5.97 7.48 9.4-1.8a.75.75 0 0 1 .77 1.16l-5.26 7.98 4.6 8.39a.75.75 0 0 1-.85 1.08l-9.23-2.53-6.54 6.97a.75.75 0 0 1-1.3-.48l-.44-9.56-8.66-4.07a.75.75 0 0 1 .06-1.38l8.95-3.37 1.2-9.5a.75.75 0 0 1 1.33-.37z"/>
        <g fill-rule="nonzero">
            <path d="M445.9 1077.42a6.28 6.28 0 1 0-.02-12.55 6.28 6.28 0 0 0 .02 12.55zm0-9.4a3.14 3.14 0 1 1 0 6.28 3.14 3.14 0 0 1 0-6.28zM485.09 1025.69a6.28 6.28 0 1 0 .01 12.55 6.28 6.28 0 0 0-.01-12.55zm0 9.41a3.14 3.14 0 1 1 0-6.28 3.14 3.14 0 0 1 0 6.28z"/>
            <path d="M445.9 1083.69c6.91 0 12.54-5.63 12.54-12.54 0-6.91-5.63-12.54-12.54-12.54a12.56 12.56 0 0 0-12.54 12.54c0 6.91 5.62 12.54 12.54 12.54zm0-21.94a9.41 9.41 0 0 1 0 18.81 9.41 9.41 0 0 1 0-18.81z"/>
            <path d="M508.9 1064.75c.18-.8.35-1.6.5-2.4 0-.05.02-.09.03-.13v-.03a46.77 46.77 0 0 0-2.94-26.53l-.02-.07a46.9 46.9 0 0 0-13.06-17.63 46.81 46.81 0 0 0-11.94-7.37c-.03 0-.05 0-.08-.02a46.74 46.74 0 0 0-26.24-3h-.01l-.13.03-1.9.37-.1.03c-2.5.55-4.93 1.3-7.27 2.24l-.65.25-1.04.46-1 .46-.82.4-.23.11-.06.02-.28.15-.65.35-.58.31-.67.37-.77.47-.4.24c-.55.33-1.09.68-1.62 1.04l-.16.1-.84.58-.1.08a49 49 0 0 0-1.73 1.29l-.06.04a47.1 47.1 0 0 0-7.09 6.89c-.03.03-.04.07-.06.1a46.79 46.79 0 0 0-8.83 43.47v.04l.05.15a46 46 0 0 0 .85 2.52c.1.3.23.59.35.88a43.67 43.67 0 0 0 1.24 2.9l.32.67a46.8 46.8 0 0 0 21.58 21.58l.64.3c.49.23.98.46 1.48.67.45.2.91.38 1.38.56.31.12.62.26.94.37.83.3 1.66.58 2.5.84l.17.05.06.01a46.84 46.84 0 0 0 35.2-3.35l.13-.05.33-.19c.38-.2.76-.42 1.13-.63l1.05-.6c.66-.41 1.31-.83 1.95-1.26l.81-.58c.43-.3.85-.6 1.27-.92l.69-.54a45.77 45.77 0 0 0 3.46-3.02l.19-.18c.76-.73 1.5-1.49 2.2-2.27.02-.02.06-.03.08-.06a46.8 46.8 0 0 0 8.28-13.03c.08-.17.14-.34.21-.52l.5-1.23.01-.05c.68-1.8 1.25-3.66 1.71-5.57l.04-.16zm-15.91 21.31l-1.2 1.07-.46.4-.98.79-.75.6-.76.55-.72.51a7.36 7.36 0 0 0-6.1-8.9l-1.63-.26v-2.79l1.55-.3a7.36 7.36 0 0 0 5.49-4.55 7.35 7.35 0 0 0-.92-7.08l-.98-1.33 1.97-1.97 2 1.36a7.37 7.37 0 0 0 11.4-4.73l.47-2.38h2.78l.26 1.64a7.25 7.25 0 0 0 1.78 3.79c-.38 1.92-.9 3.81-1.54 5.66a10.2 10.2 0 0 0-9.77 16.04c-.56.59-1.13 1.16-1.72 1.72l-.17.16zm9.85-13.49a44.44 44.44 0 0 1-5.82 9.18 7.06 7.06 0 0 1 6.45-10.59l-.54 1.23-.09.18zm-17.75-21.79a18.83 18.83 0 0 1-18.81-18.81c0-8.66 6.02-16.27 14.4-18.28 3.05 1.33 5.92 3 8.57 4.96l.16.12c.43.32.85.66 1.26 1l.41.32c.32.26.62.53.93.8l.67.58.34.33c.8.74 1.56 1.5 2.3 2.3l.26.28.61.7c.26.3.53.59.78.9l.33.42c.34.41.67.82.99 1.25l.13.18a43.95 43.95 0 0 1 4.95 8.56 18.9 18.9 0 0 1-18.28 14.39zm-32.56-39.45a6.2 6.2 0 0 0 4.92 7.4l.99.18v1.7l-1.05.17a6.2 6.2 0 0 0-4.75 3.66 6.2 6.2 0 0 0 .55 5.98l.56.84-1.2 1.2-.28-.2a6.18 6.18 0 0 0-6.06-.74 6.18 6.18 0 0 0-3.77 4.8l-.06.35h-1.7l-.19-.99a6.2 6.2 0 0 0-9.8-3.85l-.85.63-1.2-1.2.57-.84a6.12 6.12 0 0 0 .8-5.24l.46-.54a41.14 41.14 0 0 1 2.55-2.6l.64-.59a7.83 7.83 0 0 0 15.37-2.02c0-2.4-1.08-4.55-2.83-6 .96-.4 1.94-.77 2.93-1.1l.3-.1c1.02-.34 2.05-.64 3.1-.9zm-16.02 7.74l.38-.3c.63-.46 1.28-.91 1.93-1.35.32-.21.63-.43.95-.63l.12-.08c.67-.42 1.35-.8 2.03-1.18l.9-.5a4.67 4.67 0 0 1 3.08 4.4 4.7 4.7 0 1 1-9.4-.36zm.17 28.75c.04-.01.09 0 .13-.03.06-.02.1-.06.15-.09a25.11 25.11 0 0 1 31.9 33.56l-.05.07-.03.11a24.92 24.92 0 0 1-18.62 14.4h-.02c-.77-.24-1.53-.5-2.28-.79l-1.05-.41a48.55 48.55 0 0 1-2.46-1.07l-.5-.25a44.18 44.18 0 0 1-20.13-20.13l-.24-.49a42.68 42.68 0 0 1-1.07-2.47l-.41-1.04a45.8 45.8 0 0 1-.79-2.3 24.91 24.91 0 0 1 15.47-19.07zm19.76 49.47a27.94 27.94 0 0 0 14.57-13.26l2.47 1.1a1.57 1.57 0 0 0 1.28-2.86l-2.46-1.1a28.4 28.4 0 0 0 .41-18.76l1.97-.77a1.57 1.57 0 1 0-1.13-2.92l-1.99.77a28.37 28.37 0 0 0-12.8-13.42l1.11-2.5a1.57 1.57 0 1 0-2.86-1.27l-1.11 2.5a28 28 0 0 0-18.75-.47l-.76-1.96a1.57 1.57 0 1 0-2.92 1.14l.75 1.94a27.95 27.95 0 0 0-14.46 15.17 43.6 43.6 0 0 1 5.4-28.65c.07.2.18.41.35.58l3.07 3.07c.54.55 1.4.62 2.03.16l1.94-1.42a3.03 3.03 0 0 1 2.96-.39c1 .4 1.7 1.23 1.9 2.3l.44 2.26c.14.74.79 1.27 1.54 1.27h4.34c.77 0 1.43-.56 1.55-1.33l.25-1.67a3.06 3.06 0 0 1 1.88-2.38c1-.42 2.13-.28 3 .36l1.37 1c.62.46 1.49.39 2.03-.16l3.07-3.07c.53-.53.61-1.36.2-1.98l-1.3-1.91c-.6-.9-.7-1.98-.27-2.98.43-.99 1.29-1.65 2.36-1.81l2.37-.37a1.57 1.57 0 0 0 1.34-1.55v-4.34c0-.75-.54-1.4-1.28-1.54l-2.26-.43c-1.06-.2-1.9-.9-2.3-1.9-.39-1.02-.25-2.1.39-2.96l.16-.23a44.08 44.08 0 0 1 19.8 1.42 21.87 21.87 0 0 0-5.35 3.42l-1.17-1.16a1.57 1.57 0 1 0-2.21 2.21l1.17 1.18a21.96 21.96 0 0 0-5.32 12.77h-1.63a1.57 1.57 0 1 0 0 3.14h1.64c.35 4.87 2.28 9.3 5.3 12.78l-1.16 1.17a1.57 1.57 0 1 0 2.21 2.22l1.17-1.17a21.82 21.82 0 0 0 12.78 5.3v1.65a1.57 1.57 0 1 0 3.14 0v-1.64c4.8-.35 9.26-2.28 12.77-5.32l1.18 1.18a1.56 1.56 0 0 0 2.21 0c.62-.62.62-1.6 0-2.22l-1.16-1.17c1.38-1.6 2.54-3.4 3.42-5.36a43.73 43.73 0 0 1 1.96 12.96c0 .4-.02.8-.04 1.2-.16-.7-.77-1.2-1.5-1.2h-5.43c-.75 0-1.4.53-1.54 1.27l-.7 3.66a4.2 4.2 0 0 1-2.55 3.12c-1.34.56-2.8.42-4.01-.4l-3.08-2.1a1.57 1.57 0 0 0-2 .2l-3.83 3.83a1.57 1.57 0 0 0-.15 2.04l1.77 2.42a4.23 4.23 0 0 1-2.63 6.7l-2.83.54c-.74.14-1.27.79-1.27 1.54v5.43c0 .77.57 1.43 1.33 1.55l2.97.45a4.24 4.24 0 0 1 2.88 6.6l-1.61 2.37a43.63 43.63 0 0 1-26.38 4.16z"/>
        </g>
    </g>
    <path d="M769.65 317.7a146.1 146.1 0 0 0 37-97.25c0-38.79-15.17-74.08-39.83-100.34-.02-.04-.05-.05-.07-.07a146.3 146.3 0 0 0-101.74-46.17v-.01l-2.86-.08c-.74-.02-1.48-.05-2.23-.05-.74 0-1.48.03-2.22.05l-2.85.08a146.3 146.3 0 0 0-101.74 46.18l-.07.06v.01a146.1 146.1 0 0 0-39.83 100.34c0 37.28 14 71.34 36.99 97.25.03.05.03.1.06.14.1.13.23.19.32.3a146.39 146.39 0 0 0 104.26 48.9l2.86.09c.74.02 1.48.04 2.22.04.75 0 1.49-.02 2.23-.05l2.84-.08a146.38 146.38 0 0 0 104.36-49c.06-.09.17-.11.23-.2.04-.04.04-.1.07-.14zm-246.2-92.19h60.73a186.97 186.97 0 0 0 12.22 61.81 186.55 186.55 0 0 0-41.04 20.9 135.97 135.97 0 0 1-31.91-82.7zm34.67-96a186.1 186.1 0 0 0 39.97 19.63 186.85 186.85 0 0 0-13.91 66.25h-60.73a136 136 0 0 1 34.67-85.89zm238.28 85.88h-60.73a186.85 186.85 0 0 0-13.91-66.25 186.1 186.1 0 0 0 39.97-19.64 136 136 0 0 1 34.67 85.9zm-141.54-65.95a176.86 176.86 0 0 1-42.85-6.5 177.03 177.03 0 0 1 42.85-55.83v62.33zm0 10.11v55.84H594.3c.62-22 5.23-43.33 13.48-63.11 15.21 4.4 31 6.84 47.08 7.27zm10.12 0a186.8 186.8 0 0 0 47.09-7.27 176.68 176.68 0 0 1 13.49 63.11h-60.58v-55.84zm0-10.12V87.12a177.03 177.03 0 0 1 42.86 55.83 176.86 176.86 0 0 1-42.86 6.5zm52.66-9.56a186.83 186.83 0 0 0-39.9-54.82 136.22 136.22 0 0 1 76.81 37.02 175.96 175.96 0 0 1-36.9 17.8zm-115.44 0a175.8 175.8 0 0 1-36.9-17.8 136.2 136.2 0 0 1 76.81-37.02 186.76 186.76 0 0 0-39.9 54.82zm-7.9 85.64h60.56v50.79a186.6 186.6 0 0 0-48.87 7.8 176.68 176.68 0 0 1-11.7-58.59zm60.56 60.9v67.38a176.93 176.93 0 0 1-44.94-60.29 176.44 176.44 0 0 1 44.94-7.09zm10.12 67.38v-67.38c15.38.43 30.44 2.82 44.95 7.09a176.9 176.9 0 0 1-44.95 60.3zm0-77.5v-50.78h60.57a176.61 176.61 0 0 1-11.7 58.59 186.33 186.33 0 0 0-48.87-7.8zm70.7-50.78h60.72a135.94 135.94 0 0 1-31.91 82.71 186.56 186.56 0 0 0-41.04-20.9 186.86 186.86 0 0 0 12.22-61.8zM562.22 315.8a176.3 176.3 0 0 1 38.04-19.13 186.7 186.7 0 0 0 41.84 59.18 136.32 136.32 0 0 1-79.88-40.05zm115.5 40.05a186.57 186.57 0 0 0 41.85-59.18 176.42 176.42 0 0 1 38.03 19.13 136.32 136.32 0 0 1-79.87 40.05z" fill-rule="nonzero"/>
    <text x="58.52" y="569.74" font-family="'JosefinSans-Bold','Josefin Sans'" font-weight="700" font-size="48">
        ERP<tspan x="145.402px 156.346px" y="569.742px 569.742px"> /</tspan> PIM
    </text>
    <text x="568.27" y="425.16" font-family="'JosefinSans-Bold','Josefin Sans'" font-weight="700" font-size="48">
        W<tspan x="609.74" y="425.16">e</tspan>bshop
    </text>
    <text x="1034.7" y="560.83" font-family="'JosefinSans-Bold','Josefin Sans'" font-weight="700" font-size="48">
        D<tspan x="1067.72px 1113.47px" y="560.826px 560.826px">WH</tspan> / BI
    </text>
    <path d="M628.83 579.17a3.27 3.27 0 1 0-4.63 4.63l32.7 32.7c.6.62 1.43.96 2.3.96l.07-.01.07.01c1.1 0 2.01-.56 2.6-1.38l32.41-32.41a3.27 3.27 0 1 0-4.63-4.63l-27.1 27.1V489.68a3.27 3.27 0 1 0-6.55 0v116.73l-27.24-27.24zM1131.28 640a4 4 0 0 0-4 4 44.13 44.13 0 0 1-44.09 44.08h-47.78l34.11-24.8a4 4 0 1 0-4.7-6.48l-48.54 35.3 48.53 35.3a3.99 3.99 0 0 0 5.6-.9 4 4 0 0 0-.89-5.59l-34.11-24.81h47.78a52.15 52.15 0 0 0 52.1-52.1 4 4 0 0 0-4.01-4zM170.29 640a4 4 0 0 1 4 4 44.13 44.13 0 0 0 44.08 44.08h47.79l-34.11-24.8a4 4 0 1 1 4.7-6.48l48.54 35.3-48.53 35.3a4 4 0 0 1-5.6-.9 4 4 0 0 1 .89-5.59l34.1-24.81h-47.78a52.15 52.15 0 0 1-52.09-52.1 4 4 0 0 1 4-4z" fill-rule="nonzero"/>
</svg>
