<svg viewBox="0 0 1280 1280" xmlns="http://www.w3.org/2000/svg" fill-rule="evenodd" clip-rule="evenodd" stroke-linejoin="round" stroke-miterlimit="1.41">
    <path d="M151.88 258.43a69.84 69.84 0 0 0 69.78 69.77 69.84 69.84 0 0 0 69.77-69.77 69.84 69.84 0 0 0-69.77-69.77 69.84 69.84 0 0 0-69.78 69.77zm116.3 0a46.56 46.56 0 0 1-46.52 46.51 46.56 46.56 0 0 1-46.52-46.51 46.56 46.56 0 0 1 46.52-46.52 46.56 46.56 0 0 1 46.51 46.52z" fill-rule="nonzero"/>
    <path d="M392.68 382.94l81.4-81.4a11.62 11.62 0 0 0 0-16.45l-34.88-34.88a11.63 11.63 0 0 0-15.8-.6l-80.05 68.6-77.56 33.25H128.63c-3.36 0-6.54 1.44-8.75 3.98l-81.4 93.03a11.6 11.6 0 0 0-2.28 11.33l34.89 104.66a11.66 11.66 0 0 0 16.23 6.72l46.52-23.25a11.47 11.47 0 0 0 6.41-10.19v197.47a58.21 58.21 0 0 0 58.15 58.14h93.03c6.42 0 11.63-5.2 11.63-11.63v-353.3l86.6-43.3c1.13-.55 2.14-1.3 3.02-2.18zM140.25 537.29c0-1.37-.29-2.75-.82-4.1l-20.75-51.84 21.57-26.96v82.9zm145.98-126.47c-3.94 1.98-6.43 6-6.43 10.41V770.1h-46.52V584.03a11.63 11.63 0 1 0-23.25 0V770.1H198.4a34.93 34.93 0 0 1-34.89-34.9V421.24a11.63 11.63 0 1 0-20.71-7.27L96.3 472.11a11.65 11.65 0 0 0-1.72 11.58l19.29 48.21-24.96 12.48-28.54-85.61 73.55-84.05h134.26c1.57 0 3.14-.32 4.58-.95l81.4-34.88c1.09-.47 2.1-1.1 3-1.86l73.22-62.75 19.05 19.03-71.84 71.85-91.35 45.66zM779.84 630.55a69.84 69.84 0 0 0-69.78-69.77 69.76 69.76 0 0 0-58.14 31.28 69.72 69.72 0 0 0-58.14-31.28 69.76 69.76 0 0 0-58.15 31.28 69.72 69.72 0 0 0-58.14-31.28 69.84 69.84 0 0 0-69.77 69.77A69.75 69.75 0 0 0 439 688.69a69.73 69.73 0 0 0-31.28 58.15v46.51h23.25v-46.51a46.56 46.56 0 0 1 46.52-46.52A46.56 46.56 0 0 1 524 746.84v46.51h23.26v-46.51a46.56 46.56 0 0 1 46.52-46.52 46.56 46.56 0 0 1 46.51 46.52v46.51h23.26v-46.51a46.56 46.56 0 0 1 46.52-46.52 46.56 46.56 0 0 1 46.51 46.52v46.51h23.26v-46.51a69.76 69.76 0 0 0-31.28-58.15 69.75 69.75 0 0 0 31.28-58.14zm-186.06-46.51a46.56 46.56 0 0 1 46.51 46.51 46.56 46.56 0 0 1-46.51 46.52 46.56 46.56 0 0 1-46.52-46.52 46.57 46.57 0 0 1 46.52-46.52zm-162.8 46.51a46.56 46.56 0 0 1 46.5-46.52A46.56 46.56 0 0 1 524 630.55a46.56 46.56 0 0 1-46.51 46.52 46.56 46.56 0 0 1-46.52-46.52zm104.65 77.8a70.3 70.3 0 0 0-19.65-19.66 70.29 70.29 0 0 0 19.65-19.65 70.3 70.3 0 0 0 19.66 19.65 70.3 70.3 0 0 0-19.66 19.66zm116.3 0a70.28 70.28 0 0 0-19.66-19.66 70.28 70.28 0 0 0 19.65-19.65 70.3 70.3 0 0 0 19.65 19.65 70.3 70.3 0 0 0-19.65 19.66zm58.14-31.28a46.56 46.56 0 0 1-46.52-46.52 46.56 46.56 0 0 1 46.52-46.51 46.56 46.56 0 0 1 46.51 46.51 46.56 46.56 0 0 1-46.52 46.52z" fill-rule="nonzero"/>
    <path d="M1128.34 630.55a69.84 69.84 0 0 0-69.77-69.77 69.75 69.75 0 0 0-58.15 31.28 69.73 69.73 0 0 0-58.14-31.28 69.75 69.75 0 0 0-58.14 31.28 69.73 69.73 0 0 0-58.15-31.28 69.84 69.84 0 0 0-69.77 69.77 69.75 69.75 0 0 0 31.28 58.14 69.73 69.73 0 0 0-31.28 58.15v46.51h23.26v-46.51a46.56 46.56 0 0 1 46.51-46.52 46.56 46.56 0 0 1 46.52 46.52v46.51h23.25v-46.51a46.56 46.56 0 0 1 46.52-46.52 46.56 46.56 0 0 1 46.51 46.52v46.51h23.26v-46.51a46.56 46.56 0 0 1 46.52-46.52 46.56 46.56 0 0 1 46.51 46.52v46.51h23.26v-46.51a69.76 69.76 0 0 0-31.28-58.15 69.75 69.75 0 0 0 31.28-58.14zm-186.06-46.51a46.56 46.56 0 0 1 46.52 46.51 46.56 46.56 0 0 1-46.52 46.52 46.56 46.56 0 0 1-46.51-46.52 46.57 46.57 0 0 1 46.51-46.52zm-162.8 46.51a46.56 46.56 0 0 1 46.51-46.52 46.56 46.56 0 0 1 46.52 46.52 46.56 46.56 0 0 1-46.52 46.52 46.56 46.56 0 0 1-46.51-46.52zm104.66 77.8a70.3 70.3 0 0 0-19.65-19.66 70.3 70.3 0 0 0 19.65-19.65 70.29 70.29 0 0 0 19.65 19.65 70.3 70.3 0 0 0-19.65 19.66zm116.29 0a70.3 70.3 0 0 0-19.65-19.66 70.3 70.3 0 0 0 19.65-19.65 70.27 70.27 0 0 0 19.65 19.65 70.28 70.28 0 0 0-19.65 19.66zm58.14-31.28a46.56 46.56 0 0 1-46.52-46.52 46.56 46.56 0 0 1 46.52-46.51 46.56 46.56 0 0 1 46.52 46.51 46.56 46.56 0 0 1-46.52 46.52zM82.11 165.4h5.82l31.4 41.86a11.65 11.65 0 0 0 12.97 4.05 11.6 11.6 0 0 0 7.95-11.03V165.4h69.78a34.93 34.93 0 0 0 34.88-34.89V84a34.93 34.93 0 0 0-34.88-34.89H82.1A34.93 34.93 0 0 0 47.22 84v46.51a34.93 34.93 0 0 0 34.89 34.89zM70.48 84c0-6.42 5.22-11.63 11.63-11.63h127.92c6.4 0 11.63 5.2 11.63 11.63v46.51c0 6.42-5.23 11.63-11.63 11.63h-81.4c-6.42 0-11.63 5.2-11.63 11.63v11.63l-13.96-18.6a11.62 11.62 0 0 0-9.3-4.66H82.1c-6.4 0-11.63-5.2-11.63-11.63V84z" fill-rule="nonzero"/>
    <path d="M93.74 95.63H198.4v23.26H93.74z"/>
    <path d="M775.22 523.63h-3.12l-16.82 22.43a6.24 6.24 0 0 1-11.21-3.74v-18.69h-37.38a18.71 18.71 0 0 1-18.7-18.69v-24.92c0-10.3 8.4-18.69 18.7-18.69h68.53c10.3 0 18.69 8.39 18.69 18.7v24.91c0 10.3-8.39 18.7-18.7 18.7zm6.23-43.6c0-3.45-2.8-6.24-6.23-6.24h-68.53a6.24 6.24 0 0 0-6.23 6.23v24.92c0 3.44 2.8 6.23 6.23 6.23h43.6a6.23 6.23 0 0 1 6.24 6.23v6.23l7.47-9.97a6.23 6.23 0 0 1 4.99-2.49h6.23c3.43 0 6.23-2.79 6.23-6.23v-24.92z" fill-rule="nonzero"/>
    <path d="M712.92 486.25h56.07v12.46h-56.07z"/>
    <g>
        <clipPath id="a">
            <path d="M824.61 117.97v257.66H431.9v-25.52l47.87-47.87a13.07 13.07 0 0 0 0-18.5l-39.24-39.23a13.04 13.04 0 0 0-8.63-3.82V117.97H824.6z"/>
        </clipPath>
        <g clip-path="url(#a)">
            <path d="M431.89 117.97v257.66H824.6V117.97H431.9zm380.63 245.57H443.98V130.06h368.54v233.48z" fill-rule="nonzero"/>
            <path d="M450.21 326.7h356.07v12.09H450.21zM622.11 345.12h12.28v12.09h-12.28zM597.55 345.12h12.28v12.09h-12.28zM646.67 345.12h12.28v12.09h-12.28zM565.27 162.22v57.12h-101.1v-57.12h101.1zm-29.45 48.05l-15.6-15.6-7.7 7.7-15.4-15.4-23.28 23.3h-5.33V215h92.43v-4.73h-25.12zm25.12-4.34v-39.38h-92.43v39.38h3.53l25.09-25.09 15.4 15.4 7.7-7.7 17.38 17.4h23.33zm-15.43-15.46a8.77 8.77 0 0 0 0-17.53 8.77 8.77 0 0 0 0 17.53zm0-13.2a4.44 4.44 0 1 1 0 8.88 4.44 4.44 0 0 1 0-8.87zM680.92 162.5v57.12h-101.1v-57.11h101.1zm-29.45 48.05l-15.6-15.6-7.7 7.7-15.39-15.4-23.3 23.3h-5.32v4.74h92.43v-4.74h-25.12zm25.12-4.33v-39.38h-92.43v39.38h3.53l25.1-25.09 15.39 15.4 7.7-7.7 17.38 17.39h23.33zm-15.43-15.46a8.77 8.77 0 0 0 0-17.53 8.77 8.77 0 0 0 0 17.53zm0-13.2a4.44 4.44 0 1 1 0 8.88 4.44 4.44 0 0 1 0-8.88zM797.24 162.5v57.12h-101.1v-57.11h101.1zm-29.46 48.05l-15.6-15.6-7.69 7.7-15.4-15.4-23.29 23.3h-5.33v4.74h92.44v-4.74h-25.13zm25.13-4.33v-39.38h-92.44v39.38h3.54l25.08-25.09 15.4 15.4 7.7-7.7 17.39 17.39h23.33zm-15.43-15.46a8.77 8.77 0 0 0 0-17.53 8.77 8.77 0 0 0 0 17.53zm0-13.2a4.44 4.44 0 1 1-.01 8.88 4.44 4.44 0 0 1 0-8.88zM565.27 245.45v57.11h-101.1v-57.11h101.1zm-29.45 48.04l-15.6-15.6-7.7 7.7-15.4-15.4-23.28 23.3h-5.33v4.74h92.43v-4.74h-25.12zm25.12-4.33v-39.38h-92.43v39.38h3.53l25.09-25.1 15.4 15.4 7.7-7.7 17.38 17.4h23.33zm-15.43-15.46a8.77 8.77 0 0 0 0-17.53 8.77 8.77 0 0 0 0 17.53zm0-13.2a4.44 4.44 0 1 1 0 8.87 4.44 4.44 0 0 1 0-8.87zM680.92 245.73v57.12h-101.1v-57.12h101.1zm-29.45 48.05l-15.6-15.6-7.7 7.7-15.39-15.4-23.3 23.3h-5.32v4.74h92.43v-4.74h-25.12zm25.12-4.34v-39.37h-92.43v39.37h3.53l25.1-25.08 15.39 15.39 7.7-7.7 17.38 17.4h23.33zm-15.43-15.46a8.77 8.77 0 0 0 0-17.52 8.77 8.77 0 0 0 0 17.52zm0-13.2a4.44 4.44 0 1 1 0 8.88 4.44 4.44 0 0 1 0-8.87zM797.24 245.73v57.12h-101.1v-57.12h101.1zm-29.46 48.05l-15.6-15.6-7.69 7.7-15.4-15.4-23.29 23.3h-5.33v4.74h92.44v-4.74h-25.13zm25.13-4.34v-39.37h-92.44v39.37h3.54l25.08-25.08 15.4 15.39 7.7-7.7 17.39 17.4h23.33zm-15.43-15.46a8.77 8.77 0 0 0 0-17.52 8.77 8.77 0 0 0 0 17.52zm0-13.2a4.44 4.44 0 1 1-.01 8.88 4.44 4.44 0 0 1 0-8.87z"/>
        </g>
    </g>
    <g>
        <path d="M848.01 117.97v257.66h392.72V117.97H848.01zm380.63 245.57H860.1V130.06h368.54v233.48z" fill-rule="nonzero"/>
        <path d="M866.34 326.7h356.07v12.09H866.34zM1038.24 345.12h12.28v12.09h-12.28zM1013.68 345.12h12.28v12.09h-12.28zM1062.79 345.12h12.28v12.09h-12.28zM981.4 162.22v57.12H880.3v-57.12h101.1zm-29.46 48.05l-15.6-15.6-7.7 7.7-15.39-15.4-23.29 23.3h-5.33V215h92.44v-4.73h-25.13zm25.13-4.34v-39.38h-92.44v39.38h3.54l25.08-25.09 15.4 15.4 7.7-7.7 17.39 17.4h23.32zm-15.43-15.46a8.77 8.77 0 0 0 0-17.53 8.77 8.77 0 0 0 0 17.53zm0-13.2a4.44 4.44 0 1 1-.01 8.88 4.44 4.44 0 0 1 0-8.87zM1097.05 162.5v57.12h-101.1v-57.11h101.1zm-29.45 48.05l-15.6-15.6-7.7 7.7-15.39-15.4-23.3 23.3h-5.32v4.74h92.43v-4.74h-25.12zm25.12-4.33v-39.38h-92.44v39.38h3.54l25.09-25.09 15.4 15.4 7.7-7.7 17.38 17.39h23.33zm-15.43-15.46a8.77 8.77 0 0 0 0-17.53 8.77 8.77 0 0 0 0 17.53zm0-13.2a4.44 4.44 0 1 1-.01 8.87 4.44 4.44 0 0 1 .01-8.87zM1213.36 162.5v57.12h-101.1v-57.11h101.1zm-29.45 48.05l-15.6-15.6-7.7 7.7-15.39-15.4-23.3 23.3h-5.32v4.74h92.43v-4.74h-25.12zm25.12-4.33v-39.38h-92.43v39.38h3.53l25.09-25.09 15.4 15.4 7.7-7.7 17.38 17.39h23.33zm-15.43-15.46a8.77 8.77 0 0 0 0-17.53 8.77 8.77 0 0 0 0 17.53zm0-13.2a4.44 4.44 0 1 1-.01 8.87 4.44 4.44 0 0 1 .01-8.87zM981.4 245.45v57.11H880.3v-57.11h101.1zm-29.46 48.04l-15.6-15.6-7.7 7.7-15.39-15.4-23.29 23.3h-5.33v4.74h92.44v-4.74h-25.13zm25.13-4.33v-39.38h-92.44v39.38h3.54l25.08-25.1 15.4 15.4 7.7-7.7 17.39 17.4h23.32zm-15.43-15.46a8.77 8.77 0 0 0 0-17.53 8.77 8.77 0 0 0 0 17.53zm0-13.2a4.44 4.44 0 1 1-.01 8.87 4.44 4.44 0 0 1 0-8.87zM1097.05 245.73v57.12h-101.1v-57.12h101.1zm-29.45 48.05l-15.6-15.6-7.7 7.7-15.39-15.4-23.3 23.3h-5.32v4.74h92.43v-4.74h-25.12zm25.12-4.34v-39.37h-92.44v39.37h3.54l25.09-25.08 15.4 15.39 7.7-7.7 17.38 17.4h23.33zm-15.43-15.46a8.77 8.77 0 0 0 0-17.52 8.77 8.77 0 0 0 0 17.52zm0-13.2a4.44 4.44 0 1 1-.01 8.88 4.44 4.44 0 0 1 .01-8.87zM1213.36 245.73v57.12h-101.1v-57.12h101.1zm-29.45 48.05l-15.6-15.6-7.7 7.7-15.39-15.4-23.3 23.3h-5.32v4.74h92.43v-4.74h-25.12zm25.12-4.34v-39.37h-92.43v39.37h3.53l25.09-25.08 15.4 15.39 7.7-7.7 17.38 17.4h23.33zm-15.43-15.46a8.77 8.77 0 0 0 0-17.52 8.77 8.77 0 0 0 0 17.52zm0-13.2a4.44 4.44 0 1 1-.01 8.88 4.44 4.44 0 0 1 .01-8.87z"/>
    </g>
    <path d="M108.9 867.16v300l210.98 28.9v-30.83c.48.03.94.07 1.42.07h108.1a22.96 22.96 0 0 0 22.93-22.93v-250.6a22.96 22.96 0 0 0-22.93-22.93H321.3c-.48 0-.94.05-1.42.08V839L108.9 867.16zm210.98 188.25h47.84v21.3h-47.84v-21.3zm0-27.84v-21.3h47.84v21.3h-47.84zm-156.48 25.21l-5.88-13c-2.39-4.97-3.9-8.64-5.7-12.72h-.2c-1.31 4-2.9 7.58-4.86 12.36l-5.19 12.29-15.65-.77 17.59-34.05-16.98-33.39 15.78-.65 5.47 12.44c1.87 4.18 3.28 7.58 4.79 11.48h.19c1.52-4.47 2.75-7.62 4.37-11.7l5.5-13.05 17.24-.72-18.8 35.24 19.82 37.1-17.49-.86zm72.05 3.52l-46.15-2.25V980.9l16.18-.67v60.43l29.96.95v14.68zm30.59 2.69c-9.47-.48-18.62-3.26-23.12-5.9l3.67-14.48a49.85 49.85 0 0 0 20.57 5.57c8.8.3 13.53-3.05 13.53-8.36 0-5.07-4.1-8.03-14.28-11.63-13.71-4.71-22.44-11.94-22.44-23.3 0-13.31 11.5-24 31.23-24.84 9.74-.42 17.06 1.23 22.36 3.22l-4.5 15.23a43.18 43.18 0 0 0-18.24-3.45c-8.28.22-12.25 3.88-12.25 8.01 0 5.09 4.71 7.3 15.69 11.17 15.46 5.32 22.91 12.98 22.91 24.71 0 13.96-11.53 25.24-35.13 24.05zm55.26-177.04h108.1c5.42 0 9.83 4.4 9.83 9.82v250.6c0 5.42-4.4 9.83-9.83 9.83H321.3c-.48 0-.95-.07-1.42-.14v-72.08h105.44V978.43H319.88V882.1c.47-.07.94-.15 1.42-.15zm100.75 124.32v21.3H371v-21.3h51.05zM371 1003v-21.3h51.05v21.3H371zm51.05 52.41v21.3H371v-21.3h51.05z" fill-rule="nonzero"/>
    <path d="M787.44 1165.29h-108.1c-.48 0-.95-.04-1.42-.07v30.83l-210.99-28.88V867.15L677.92 839v29.9c.47-.02.94-.06 1.42-.06h108.1a22.96 22.96 0 0 1 22.93 22.93v250.59a22.96 22.96 0 0 1-22.93 22.93zm0-283.34h-108.1c-.49 0-.96.07-1.42.14v124.13a53.6 53.6 0 0 1 51.8-39.98v53.64h53.64a53.6 53.6 0 1 1-105.44 13.65v118.52c.46.07.93.15 1.42.15h108.1a9.84 9.84 0 0 0 9.82-9.83v-250.6c0-5.41-4.4-9.82-9.82-9.82zM658.1 993.89l-20.9.34v59.94l-16.93-.43V994.5l-19.53.33v-13.7l57.36-1.5v14.26zm-68.77 26.27c-5.41 5.17-13.37 7.44-22.54 7.37a37.18 37.18 0 0 1-5.24-.35v25.07l-15.03-.38v-68.4c4.65-.95 11.2-1.74 20.57-1.99 9.6-.24 16.52 1.47 21.2 5.17 4.51 3.52 7.57 9.44 7.57 16.47 0 7.03-2.33 13.01-6.53 17.04zm-58.27-.11c-4.98 4.95-12.28 7.13-20.7 7.07a33.56 33.56 0 0 1-4.83-.34v24.03l-13.8-.34v-65.63c4.26-.9 10.3-1.65 18.9-1.88 8.82-.23 15.17 1.43 19.47 4.98 4.15 3.37 6.95 9.04 6.95 15.78s-2.13 12.46-5.99 16.33zm-19.69-25.58c-2.88.05-4.83.38-5.84.7v19.85c1.2.3 2.68.4 4.72.4 7.58-.02 12.3-4.17 12.3-11.14 0-6.27-4.05-9.94-11.17-9.81zm56.53-1c-3.14.06-5.25.4-6.35.74v20.7c1.3.31 2.91.4 5.14.4 8.25 0 13.4-4.33 13.4-11.61 0-6.54-4.44-10.36-12.19-10.22zm222.74 17.96H737v-.02L774.36 973a53.44 53.44 0 0 1 16.28 38.44zm-54.21-9.44l37.92-37.92c-10.67-10.68-23.97-15.88-37.96-15.68l.03 53.59v.01zM1145.07 1166.79h-108.6c-.48 0-.95-.04-1.42-.07v30.97l-211.96-29.02V867.3L1035.05 839v30.05c.47-.02.95-.07 1.43-.07h108.59a23.06 23.06 0 0 1 23.04 23.04v251.73a23.06 23.06 0 0 1-23.04 23.04zm0-13.16a9.88 9.88 0 0 0 9.87-9.87v-61.62c-.22.17-.41.36-.65.52l-.72.38s-.67.3-1.9.59c-5.35 1.2-19.2 1.36-32.18-23.16l-3.21-6.24c-27.18-6.39-58.6-3.43-81.23.48v98.77c.47.07.94.15 1.43.15h108.59zm-15.53-95.36a77.74 77.74 0 0 1 17.27 9.13c1.45 2.06 2.8 5.03 2.55 6.43a.63.63 0 0 1-.06.2c-2.08.39-10.34.65-19.76-15.76zm15.53-176.13h-108.6c-.48 0-.95.08-1.42.15v156.36a716.88 716.88 0 0 0 44.1-59.58c-.5-1.22-.89-2.19-1.13-2.95-5.36-16.38-6.14-28.08-2.35-34.77 2.49-4.37 7.07-6.67 12.44-6.43 3.32.11 9.83 1.85 13.1 7.64 3.6 6.4 2.17 15.46-4.34 27.07-.1.18-2.35 3.93-6.53 10.37 7.22 15.8 24.4 49.57 32.7 65.76 11.62 3.2 21.78 7.95 30.2 14.1l.55.4.42.54c.16.2.42.56.73 1V892.02a9.88 9.88 0 0 0-9.87-9.88zm-179.37 94.7v73.52l17.04.48v-29.92l27.81.19v-13.95l-27.8.07v-17l29.78-.43v-14.08l-46.83 1.12zm-22.97 64.3c-7.52 6.13-18.82 8.8-32.38 8.43-7.99-.23-13.6-.9-17.37-1.52V979.5a133.46 133.46 0 0 1 20.74-1.95c13.2-.32 21.91 1.92 28.8 7.03 7.5 5.47 12.25 14.38 12.25 27.27 0 13.96-5.08 23.51-12.04 29.29zm-65.35-24.83c-5.01 4.97-12.38 7.14-20.88 7.06a33.9 33.9 0 0 1-4.87-.34v24.19l-13.92-.39v-66.05c4.3-.9 10.39-1.64 19.07-1.85 8.87-.21 15.3 1.47 19.64 5.05 4.18 3.4 7 9.11 7 15.9 0 6.78-2.15 12.54-6.04 16.43zm166.88 26.7c17-20.74 30.75-40.1 39.6-53.22l.03.08.1-.15c6.94 14.65 18.4 37.3 26.28 52.77l-.02-.01.27.52c-22.43-3.83-46.5-2.43-66.31.3l.29-.33-.24.04zm-128.9-53.18c-3.48.05-5.71.4-7.03.74v46.17c1.31.34 3.45.38 5.39.42 14.25.38 23.7-7.57 23.7-24.79.11-14.97-8.5-22.75-22.06-22.54zm-57.83.68c-2.9.04-4.87.37-5.9.7v19.97c1.21.3 2.7.4 4.78.4 7.65 0 12.4-4.16 12.4-11.18 0-6.3-4.1-10-11.28-9.9zm230.8-25.83c6.26-11.19 5.1-15.78 4.3-17.23-1.33-2.43-4.88-2.66-4.91-2.66-1.79-.08-2.78.24-3.47 1.44-1.54 2.71-1.77 9.9 1.74 22.23 1.52-2.42 2.33-3.77 2.33-3.78h.01z"/>
</svg>
